<?xml version="1.0" standalone="no"?>
<!DOCTYPE svg PUBLIC "-//W3C//DTD SVG 1.1//EN" "http://www.w3.org/Graphics/SVG/1.1/DTD/svg11.dtd" >
<svg xmlns="http://www.w3.org/2000/svg">
<metadata>
Created by FontForge 20120731 at Tue Oct 18 14:35:20 2016
 By admin
</metadata>
<defs>
<font id="iconfont" horiz-adv-x="1024" >
  <font-face 
    font-family="iconfont"
    font-weight="500"
    font-stretch="normal"
    units-per-em="1024"
    panose-1="2 0 6 3 0 0 0 0 0 0"
    ascent="896"
    descent="-128"
    x-height="792"
    bbox="0 -128.087 1269 896.03"
    underline-thickness="50"
    underline-position="-100"
    unicode-range="U+0078-E65B"
  />
<missing-glyph horiz-adv-x="374" 
d="M34 0v682h272v-682h-272zM68 34h204v614h-204v-614z" />
    <glyph glyph-name=".notdef" horiz-adv-x="374" 
d="M34 0v682h272v-682h-272zM68 34h204v614h-204v-614z" />
    <glyph glyph-name=".null" horiz-adv-x="0" 
 />
    <glyph glyph-name="nonmarkingreturn" horiz-adv-x="341" 
 />
    <glyph glyph-name="x" unicode="x" horiz-adv-x="1001" 
d="M281 543q-27 -1 -53 -1h-83q-18 0 -36.5 -6t-32.5 -18.5t-23 -32t-9 -45.5v-76h912v41q0 16 -0.5 30t-0.5 18q0 13 -5 29t-17 29.5t-31.5 22.5t-49.5 9h-133v-97h-438v97zM955 310v-52q0 -23 0.5 -52t0.5 -58t-10.5 -47.5t-26 -30t-33 -16t-31.5 -4.5q-14 -1 -29.5 -0.5
t-29.5 0.5h-32l-45 128h-439l-44 -128h-29h-34q-20 0 -45 1q-25 0 -41 9.5t-25.5 23t-13.5 29.5t-4 30v167h911zM163 247q-12 0 -21 -8.5t-9 -21.5t9 -21.5t21 -8.5q13 0 22 8.5t9 21.5t-9 21.5t-22 8.5zM316 123q-8 -26 -14 -48q-5 -19 -10.5 -37t-7.5 -25t-3 -15t1 -14.5
t9.5 -10.5t21.5 -4h37h67h81h80h64h36q23 0 34 12t2 38q-5 13 -9.5 30.5t-9.5 34.5q-5 19 -11 39h-368zM336 498v228q0 11 2.5 23t10 21.5t20.5 15.5t34 6h188q31 0 51.5 -14.5t20.5 -52.5v-227h-327z" />
    <glyph glyph-name="uniE600" unicode="&#xe600;" 
d="M864 786h-704q-53 0 -90.5 -37.5t-37.5 -90.5v-419q0 -53 37.5 -90.5t90.5 -37.5h360q149 -121 170 -137q9 -8 15.5 -10t9.5 1t3 9v137h146q53 0 90.5 37.5t37.5 90.5v419q0 53 -37.5 90.5t-90.5 37.5zM306.5 375q-28.5 0 -48.5 20t-20 48.5t20 48.5t48.5 20t48.5 -20
t20 -48.5t-20 -48.5t-48.5 -20zM512 375q-28 0 -48 20t-20 48.5t20 48.5t48 20t48.5 -20t20.5 -48.5t-20.5 -48.5t-48.5 -20zM717.5 375q-28.5 0 -48.5 20t-20 48.5t20 48.5t48.5 20t48.5 -20t20 -48.5t-20 -48.5t-48.5 -20z" />
    <glyph glyph-name="uniE601" unicode="&#xe601;" 
d="M878 768v-640q0 -29 -19.5 -51t-49.5 -34.5t-59 -18.5t-55 -6t-55.5 6t-59 18.5t-49 34.5t-19.5 51t19.5 51t49 34.5t59 18.5t55.5 6q60 0 110 -23v307l-439 -135v-405q0 -29 -19.5 -51t-49.5 -34.5t-59 -18.5t-55 -6t-55.5 6t-59 18.5t-49 34.5t-19.5 50.5t19.5 51
t49 34.5t59 18t55.5 6q60 0 110 -22v553q0 17 10.5 32t27.5 20l476 147q7 2 16 2q23 0 39 -16t16 -39z" />
    <glyph glyph-name="uniE602" unicode="&#xe602;" 
d="M1024 715v-649q0 -35 -25.5 -60t-60.5 -25h-853q-35 0 -60 25t-25 60v649q0 35 25 60t60 25h853q36 0 61 -25t25 -60zM938 732h-853q-7 0 -12 -5t-5 -12v-649q0 -7 5 -12t12 -5h853q7 0 12 5t5 12v649q0 7 -5 12t-12 5zM311 633.5q30 -29.5 30 -72.5t-30 -72.5
t-72.5 -29.5t-72.5 29.5t-30 72.5t30 72.5t72.5 29.5t72.5 -29.5zM887 356v-239h-751v103l171 170l85 -85l273 273z" />
    <glyph glyph-name="uniE603" unicode="&#xe603;" 
d="M673.5 732.5q30.5 34.5 46.5 77.5t11 86q-41 -2 -86.5 -23.5t-75.5 -54.5q-30 -31 -47 -74t-11 -84q44 -3 88 17.5t74.5 55zM812 352q0 35 11.5 67.5t26 53t34.5 39t29 24.5t17 10l1 1q-23 31 -53 52.5t-59.5 31t-50 13.5t-38.5 4q-37 4 -80 -7.5t-78.5 -25.5t-52.5 -14
q-18 0 -80 23t-101 22q-70 -1 -131 -35.5t-97 -92.5q-35 -57 -43.5 -129t6.5 -141.5t42.5 -133t64.5 -112.5q22 -30 37.5 -48.5t38.5 -40t47.5 -32t50.5 -9.5q31 1 83 21.5t97 20.5q43 0 94 -20.5t87 -20.5q27 1 50.5 11t45.5 30.5t36.5 37.5t36.5 47q44 61 76 146
q-9 3 -19.5 8t-35.5 22.5t-43.5 39t-33.5 58.5t-16 79z" />
    <glyph glyph-name="uniE604" unicode="&#xe604;" horiz-adv-x="1025" 
d="M8 888zM516 -55q-15 0 -25 10l-354 341l-15 15q-10 10 -31.5 37t-38.5 55.5t-30.5 68.5t-13.5 78q0 125 72 195t199 70q35 0 71.5 -12t68 -32.5t54.5 -39t43 -38.5q20 20 43 38.5t54.5 39t68 32.5t71.5 12q127 0 199 -70t72 -195t-130 -255l-353 -340q-10 -10 -25 -10z
" />
    <glyph glyph-name="uniE605" unicode="&#xe605;" 
d="M44 888zM973 617q23 -32 11 -73l-156 -514q-11 -36 -43.5 -60.5t-69.5 -24.5h-524q-43 0 -83.5 30t-56.5 74q-14 38 -1 72q0 3 1.5 16t2.5 21q0 4 -2 12t-2 11q1 6 4.5 12t9.5 13.5t9 13.5q14 21 26 51.5t17 51.5q2 6 0.5 17.5t-0.5 15.5q2 6 10 16t9 13q12 21 24 52.5
t14 50.5q1 5 -1 18.5t0 15.5q2 8 12.5 18t12.5 12q11 15 24.5 48t15.5 55q0 5 -2 14.5t-1 14.5t5 10.5t10.5 13t9.5 12.5q4 6 9 16.5t8.5 20t9 20.5t11.5 18t15 13.5t20 6.5t27 -3v-2q21 5 29 5h431q42 0 64.5 -31.5t10.5 -73.5l-155 -514q-21 -67 -41 -86.5t-73 -19.5h-493
q-15 0 -21 -9t-1 -24q14 -40 82 -40h523q17 0 32 9t20 23l170 560q4 13 3 32q21 -8 33 -24zM370 616q-2 -7 1.5 -12.5t10.5 -5.5h345q8 0 15 5.5t9 12.5l12 36q2 8 -1.5 13t-11.5 5h-344q-8 0 -15 -5t-9 -13zM323 471q-2 -8 1 -13t11 -5h345q8 0 15 5t9 13l12 36
q2 7 -1.5 12.5t-11.5 5.5h-344q-8 0 -15 -5.5t-9 -12.5z" />
    <glyph glyph-name="uniE606" unicode="&#xe606;" 
d="M796 832h-568q-31 0 -53 -22t-22 -53v-745q0 -31 22 -53.5t53 -22.5h568q31 0 53 22.5t22 53.5v745q0 31 -22 53t-53 22zM504.5 -33q-18.5 0 -31.5 13t-13 32t13 32t31.5 13t31.5 -13t13 -32t-13 -32t-31.5 -13zM817 97h-610v682h610v-682z" />
    <glyph glyph-name="uniE607" unicode="&#xe607;" 
d="M736 896h-448q-40 0 -68 -28t-28 -68v-832q0 -40 28 -68t68 -28h448q40 0 68 28t28 68v832q0 40 -28 68t-68 28zM384 848h256v-32h-256v32zM512 -64q-27 0 -45.5 18.5t-18.5 45.5t18.5 45.5t45.5 18.5t45.5 -18.5t18.5 -45.5t-18.5 -45.5t-45.5 -18.5zM768 128h-512v640
h512v-640z" />
    <glyph glyph-name="uniE608" unicode="&#xe608;" 
d="M366 457h292v110q0 60 -42.5 103t-103.5 43t-103.5 -43t-42.5 -103v-110zM841 402v-329q0 -23 -16 -39t-39 -16h-548q-23 0 -39 16t-16 39v329q0 23 16 39t39 16h18v110q0 105 75.5 180.5t180.5 75.5t180.5 -75.5t75.5 -180.5v-110h18q23 0 39 -16t16 -39z" />
    <glyph glyph-name="uniE609" unicode="&#xe609;" 
d="M755 555l10 100h-506l27 -305h350l-13 -131l-112 -30l-112 30l-8 80h-100l13 -158l207 -58h2v1l205 57l29 310h-368l-9 104h385zM110 823h804l-73 -822l-330 -92l-328 92z" />
    <glyph glyph-name="uniE60A" unicode="&#xe60a;" 
d="M378 24q26 3 32.5 25t-7.5 35q-5 4 -53.5 43t-60.5 52q-3 3 -14 12t-14 15q-26 58 -5 95q3 6 3 1q0 -3 -1 -9q-10 -47 14 -80q15 -18 22 -3q3 9 2.5 33.5t0.5 39.5q4 33 27 81t36 51q-10 16 -6 35.5t12 33t17 32t8.5 32.5t11.5 -3q29 -39 39 -46q13 -6 28.5 1t38.5 24.5
t38 25.5q2 0 5 1.5t4.5 2.5t4 2.5t4 2t3.5 2t3.5 2.5t2.5 2t1 2v1q-1 6 -5 7t-10 -1.5t-13.5 -7t-17.5 -9.5t-19.5 -10t-20.5 -8.5t-20 -3.5q-25 -1 -39 12q-12 12 -8 13q1 0 8 -1q24 -4 41 -1q14 3 40 13q6 3 18 8t22 9t19 7q6 1 9 5t2 7t-4 5q-6 4 -11 -5q-3 -4 -9 -8
t-14 -7t-14.5 -5t-15 -4.5t-10.5 -2.5q-32 -10 -58 -9q-16 1 -23.5 5.5t-14.5 13.5t-16 14q-6 4 -5 11.5t9 14.5q1 1 12 7.5t15 13.5q5 7 18 16q1 3 1.5 13t-5.5 22t-16 12q-26 1 -24 -29q0 -11 5 -19t9 -8q10 0 0 -9q-2 -3 -5 -4q-4 -1 -9 8t-8 21.5t-2 21.5q1 17 9.5 33
t24.5 16t25.5 -19t9.5 -52q1 -4 8.5 -3t19.5 0.5t16 -5.5q2 -2 2 2q-4 37 1 50q10 30 49 33q13 -3 20.5 -6.5t16 -16.5t12.5 -36q-2 -4 -0.5 -12.5t0 -18t-7.5 -11.5q-12 -4 -17 0.5t1 15.5q6 14 -2 33t-30 17q-14 -1 -20 -15.5t-4.5 -29t6.5 -14.5q4 -1 20.5 -9.5
t25.5 -10.5q22 -4 25.5 -14t-2.5 -28.5t-4 -30.5q3 -12 9.5 -22.5t13.5 -19t16.5 -32t17.5 -58.5l4 -4t8 -9t9 -14t11 -26t11 -40q6 -26 6.5 -61t4.5 -47.5t23 -10.5q22 2 28 24q19 67 -31 159q-19 36 -32 48q20 -12 41 -43.5t27 -59.5q0 -3 3 -16t3.5 -16t2 -13t1.5 -14
t0.5 -12.5t-1 -15t-3.5 -15t-4 -18.5q31 -15 31 -24q-12 10 -34.5 13t-41.5 -6t-20 -30q-21 -1 -29 -11q-13 -15 -13.5 -40t4.5 -55t4 -42q-2 -19 -8.5 -53t-8.5 -43q-11 0 -13 8.5t4 21.5q12 41 13 53q0 26 -6 30q-7 4 -20 -17q-25 -41 -101 -50q-69 -9 -96 20
q-6 4 -11 1.5t-7 -5.5q-1 -1 0.5 -3t5.5 -6.5t6 -9.5q22 -39 -4 -52q0 26 -4 40t-16 30.5t-17 25.5v0zM364 26q8 -13 15 -28.5t12 -38.5t-7.5 -40t-42.5 -21q-13 -2 -32 2.5t-47 13.5t-43 12q-20 5 -57 12t-48 11q-20 5 -22 14q-1 9 8.5 28t10 27.5t-1 14.5t-6.5 16.5
t-6 12.5q-10 23 -2 32q6 8 25 6q29 -3 47 8q31 19 18 61q0 -19 -6.5 -29t-23.5 -20q-10 -5 -35 -6.5t-33 -8.5q-6 -5 -6 -15.5t3 -20.5t5.5 -24t2.5 -23q-1 -7 -11 -32t-4 -37q3 -7 10 -11.5t19.5 -8t23 -5.5t28.5 -5.5t29 -5.5q36 -7 83.5 -24.5t64.5 -17.5q16 -1 30.5 6.5
t25 16.5t30.5 17t46 8q32 2 66 2q35 1 74 0q18 0 27.5 -5t12.5 -11t9.5 -14.5t16.5 -14.5q22 -9 51 -7.5t39 10.5q50 48 93 69q5 3 15.5 8t18 8.5t18 9t17 10.5t13.5 11.5t9 12.5t1.5 12.5t-6.5 13.5t-18 15q-1 0 -9.5 4.5t-12.5 7.5t-12 11t-12 16.5t-8 23t-5 32.5
q-7 -7 -8 -27t8.5 -41.5t28.5 -27.5q18 -6 29 -13.5t14.5 -16.5t-10.5 -19.5t-44 -20.5q-42 -15 -59.5 -25t-51.5 -38q-23 -19 -48.5 -20t-42 19t-10.5 58q11 71 -1 111q-9 32 -4 55q5 24 16 28t24 -17q1 -3 5 -11t6.5 -11.5t8 -9t13 -7.5t17.5 -3q20 -1 35.5 7.5t23 19.5
t15.5 20.5t14 10.5t11 12.5t7 31.5t-3 49q-8 49 -33.5 108.5t-57.5 93.5q-57 61 -76 125q-21 68 -17 122q2 39 -17.5 84t-52.5 70q-44 32 -112 31q-38 0 -59 -12q-46 -25 -61 -60t-14 -86q2 -109 9 -178q-9 -31 -71 -111q-12 -11 -23 -31t-17 -35t-16.5 -44.5t-15.5 -40.5
q-4 -11 -12.5 -24.5t-14 -26.5t-5.5 -30q-2 -33 7 -32q1 1 3 2q26 20 60 -18t101 -143v0zM567 819q-1 -2 -4 -6t-3.5 -5.5t1.5 -4.5q4 -1 5.5 0t6 5t8.5 5q1 0 5.5 0.5t8 1.5t5.5 4q0 1 -1.5 2.5t-5 4t-5.5 3.5q-9 9 -14 9q-5 -1 -6.5 -4.5t-0.5 -7.5t0 -7zM451 661
q-15 1 -16 -8q-1 -4 3 -3q3 0 5 5.5t8 5.5zM420 695q2 0 3.5 -2.5t1.5 -6.5q-3 -11 4 -11q1 0 2 2q1 9 -2 16.5t-6 8.5q-5 1 -5 -3q0 -3 2 -4zM553 701q8 -3 10 -18l6 2v1q0 9 -5.5 14.5t-9.5 5.5q-7 -2 -1 -5zM485 659q14 7 18 -1q2 -4 -1 -5q-3 0 -7 4t-10 2z" />
    <glyph glyph-name="uniE60B" unicode="&#xe60b;" 
d="M879 565q-23 0 -39 -16t-16 -38v-213q0 -23 16 -39t39 -16t39.5 16t16.5 39v213q0 22 -16.5 38t-39.5 16zM211 565q-23 0 -39 -16t-16 -38v-213q0 -23 16 -39t39 -16t39 16t16 39v213q0 22 -16 38t-39 16zM300 175q0 -18 12.5 -30t30.5 -12h49v-119q0 -22 16.5 -38
t39.5 -16t39 16t16 38v119h86v-119q0 -22 16.5 -38t39.5 -16t39 16t16 38v119h50q18 0 30.5 12t12.5 30v389h-493v-389zM662 765l46 64q5 7 -1.5 11.5t-11.5 -2.5l-47 -67q-49 19 -103 19t-102 -19l-47 67q-5 7 -11.5 2.5t-1.5 -11.5l45 -64q-55 -25 -90 -69t-39 -98h493
q-5 54 -40 98t-90 69zM441.5 664q-11.5 0 -19.5 8t-8 19t8 18.5t19.5 7.5t19 -7.5t7.5 -18.5t-7.5 -19t-19 -8zM652.5 664q-11.5 0 -19.5 8t-8 19t8 18.5t19.5 7.5t19.5 -7.5t8 -18.5t-8 -19t-19.5 -8z" />
    <glyph glyph-name="uniE60C" unicode="&#xe60c;" 
d="M341 774q25 0 44 -18q18 -18 18 -44v-247q0 -26 -18.5 -44t-43.5 -18h-247q-26 0 -43.5 18t-17.5 44v247q0 26 17.5 44t43.5 18h247zM341 279q25 0 44 -18q18 -18 18 -44v-248q0 -26 -18.5 -43.5t-43.5 -17.5h-247q-26 0 -43.5 17.5t-17.5 43.5v248q0 26 17.5 44t43.5 18
h247zM836 279q25 0 43 -18t18 -44v-248q0 -26 -18 -43.5t-43 -17.5h-247q-26 0 -44.5 17.5t-18.5 43.5v248q0 26 18.5 44t44.5 18h247zM973 665q20 -20 20 -46.5t-20 -45.5l-184 -184q-20 -20 -46 -20t-46 20l-184 184q-18 19 -18 45.5t18 46.5l184 184q20 19 46 19t46 -19z
" />
    <glyph glyph-name="uniE60D" unicode="&#xe60d;" horiz-adv-x="1098" 
d="M512 384q0 61 -43 103.5t-103.5 42.5t-103.5 -42.5t-43 -103.5t43 -103.5t103.5 -42.5t103.5 42.5t43 103.5zM951 91q0 30 -22 52t-51.5 22t-51 -22t-21.5 -52t21 -51.5t51.5 -21.5t52 21.5t21.5 51.5zM951 677q0 29 -22 51t-51.5 22t-51 -22t-21.5 -51q0 -31 21 -52.5
t51.5 -21.5t52 21.5t21.5 52.5zM731 436v-106q0 -5 -4 -10.5t-9 -6.5l-88 -14q-7 -20 -19 -43q20 -27 52 -66q4 -5 4 -11q0 -7 -4 -11q-13 -17 -47 -51t-45 -34q-6 0 -12 4l-66 51q-21 -11 -44 -17q-6 -62 -13 -89q-4 -14 -17 -14h-106q-7 0 -12 4.5t-6 10.5l-13 87
q-19 6 -43 18l-67 -51q-4 -4 -11 -4t-12 4q-83 76 -83 92q0 5 4 11q6 8 23.5 30t27.5 35q-14 25 -20 47l-87 13q-6 1 -10 6t-4 11v106q0 5 4 10.5t9 6.5l89 14q6 20 18 43q-19 27 -51 66q-4 6 -4 11q0 7 4 12q12 17 46.5 50.5t45.5 33.5q6 0 12 -4l65 -51q20 10 44 18
q7 62 13 88q4 14 18 14h106q6 0 11 -4.5t6 -10.5l13 -87q20 -6 43 -18l67 51q5 4 12 4q6 0 12 -4q82 -76 82 -92q0 -5 -4 -11q-7 -9 -24 -30.5t-26 -34.5q14 -27 20 -47l87 -13q5 -1 9 -6t4 -11zM1097 131v-80q0 -9 -85 -17q-7 -16 -17 -30q29 -65 29 -79q0 -2 -2 -4
q-70 -40 -71 -40q-5 0 -26.5 26.5t-29.5 38.5q-12 -1 -17.5 -1t-16.5 1q-8 -12 -30 -38.5t-26 -26.5q-2 0 -71 40q-3 2 -3 4q0 14 30 79q-11 14 -18 30q-85 8 -85 17v80q0 10 85 18q8 17 18 30q-30 64 -30 79q0 2 3 4q2 1 19.5 11t33.5 19.5t18 9.5q4 0 26 -26.5t30 -38.5
q11 1 17 1t17 -1q29 40 53 64l3 1q2 0 71 -40q2 -2 2 -4q0 -15 -29 -79q10 -13 17 -30q85 -8 85 -18zM1097 717v-80q0 -10 -85 -18q-7 -16 -17 -30q29 -64 29 -79q0 -2 -2 -4q-70 -40 -71 -40q-5 0 -26.5 26.5t-29.5 38.5q-12 -1 -17.5 -1t-16.5 1q-8 -12 -30 -38.5
t-26 -26.5q-2 0 -71 40q-3 2 -3 4q0 15 30 79q-11 14 -18 30q-85 8 -85 18v80q0 9 85 17q8 17 18 30q-30 65 -30 79q0 2 3 4q2 1 19.5 11.5t33.5 19.5t18 9q4 0 26 -26.5t30 -38.5q11 1 17 1t17 -1q29 40 53 64l3 1q2 0 71 -40q2 -2 2 -4q0 -14 -29 -79q10 -13 17 -30
q85 -8 85 -17z" />
    <glyph glyph-name="uniE60E" unicode="&#xe60e;" 
d="M901 -73v-37q0 -7 -5.5 -12.5t-13.5 -5.5h-768q-7 0 -12.5 5.5t-5.5 12.5v37q0 7 5.5 12.5t12.5 5.5h768q8 0 13.5 -5.5t5.5 -12.5zM754 530q0 -44 -14 -82t-36.5 -64.5t-50 -50t-54.5 -44t-50 -41.5t-37 -47t-14 -55q0 -55 39 -128l-3 1l1 -1q-52 24 -92 48t-79 57
t-64.5 70t-41.5 86t-16 105q0 45 14 82.5t36.5 64t50 50.5t55 44.5t50 41t36.5 46.5t14 55q0 54 -37 128l1 -1v1q51 -23 91 -47t79.5 -57.5t65 -70t41 -86t15.5 -105.5z" />
    <glyph glyph-name="uniE60F" unicode="&#xe60f;" 
d="M512 -96q-9 3 -23.5 8.5t-57 25.5t-81 42t-85.5 57t-81 72.5t-57 87t-23 100.5v422l408 145l408 -145v-422q0 -168 -231 -308q-92 -55 -177 -85zM682 534l-204 -204l-112 112l-68 -68l112 -112l68 -68l68 68l204 204z" />
    <glyph glyph-name="uniE610" unicode="&#xe610;" 
d="M240 -28h-92v824h92v-824zM876 735q-7 -6 -18.5 -14.5t-47 -23t-69.5 -14.5q-33 0 -59.5 11t-45.5 26t-39 30.5t-50 26t-69 10.5q-52 0 -101 -19t-75 -42v-433q87 60 176 60q37 0 67 -10t51.5 -24.5t42.5 -29t48.5 -25t59.5 -10.5q34 0 66 12.5t48 24.5l15 12v432z" />
    <glyph glyph-name="uniE611" unicode="&#xe611;" 
d="M799 430v4v4q0 96 -69 165t-165 69q-67 0 -123.5 -37t-84.5 -97q-26 13 -54 13q-44 0 -77 -30.5t-41 -73.5q-54 -19 -87.5 -64.5t-33.5 -103.5q0 -75 52.5 -129t126.5 -54h553q67 0 115.5 50t48.5 119q0 68 -47 116.5t-114 48.5z" />
    <glyph glyph-name="uniE612" unicode="&#xe612;" 
d="M675 -57l-154 406l-163 -142l-11 -119l-64 -57l-55 143l-127 78l68 59l108 -10l165 143l-365 222l85 73l455 -143l239 207q20 17 45 15t41 -21.5t13.5 -45t-21.5 -42.5l-241 -210l65 -483z" />
    <glyph glyph-name="uniE613" unicode="&#xe613;" horiz-adv-x="1515" 
d="M1247 729q-7 2 -14 2q-16 0 -26 -10l-230 -230v94q0 68 -48.5 116.5t-116.5 48.5h-402q-68 0 -116.5 -48.5t-48.5 -116.5v-402q0 -68 48.5 -116.5t116.5 -48.5h402q68 0 116.5 48.5t48.5 116.5v95l230 -231q10 -10 26 -10q7 0 14 2q22 10 22 34v622q0 24 -22 34z" />
    <glyph glyph-name="uniE614" unicode="&#xe614;" 
d="M431 402v412l-424 -59v-353h424zM466 402h550v494l-550 -77v-417zM431 367h-424v-353l424 -60v413zM466 367v-418l550 -77v495h-550z" />
    <glyph glyph-name="uniE615" unicode="&#xe615;" 
d="M63 372q0 -145 84 -261t217 -163q5 -1 8.5 -1t5.5 1.5t3.5 2.5t2 4.5t0.5 4.5v6v5v78q-39 -5 -67 1t-43 19.5t-23 25.5t-12.5 26.5t-5.5 16.5q-8 13 -23.5 24t-23.5 17.5t-2 12.5q44 23 99 -58q30 -44 104 -26q9 36 35 61q-101 18 -150.5 75.5t-49.5 138.5q0 76 49 132
q-20 58 5 120q26 3 57.5 -9t44 -20.5t21.5 -15.5q51 14 113.5 14t113.5 -14q65 49 122 44q23 -63 5 -119q50 -55 50 -132q0 -82 -50 -139t-151 -75q38 -38 38 -91v-113v-3l2 -8q0 -2 3.5 -4.5t9.5 -2.5q135 45 220.5 162t85.5 263q0 92 -35.5 175t-95.5 143t-143.5 95.5
t-174.5 35.5t-174.5 -35.5t-143.5 -95.5t-95.5 -143t-35.5 -175z" />
    <glyph glyph-name="uniE616" unicode="&#xe616;" 
d="M969 347.5q0 -14.5 -11 -25.5t-25 -11h-128q0 -98 -39 -166l119 -119q11 -11 11 -26t-11 -26q-10 -11 -25.5 -11t-25.5 11l-113 113q-3 -3 -9 -7.5t-24 -16.5t-37 -21t-47 -16.5t-55 -7.5v512h-74v-512q-29 0 -57.5 8t-49.5 19t-38 22t-25 19l-8 8l-105 -119
q-11 -12 -27 -12q-14 0 -25 10t-12 25t9 27l116 129q-34 65 -34 157h-128q-14 0 -25 11t-11 25.5t11 25.5t25 11h128v168l-98 99q-11 11 -11 25.5t10.5 25.5t25.5 11t26 -11l99 -99h482l99 99q11 11 26 11t25.5 -11t10.5 -25.5t-11 -25.5l-98 -99v-168h128q14 0 25 -11
t11 -25.5zM695 677h-366q0 76 53.5 129t129.5 53t129.5 -53t53.5 -129z" />
    <glyph glyph-name="uniE617" unicode="&#xe617;" horiz-adv-x="1098" 
d="M1024 329v476q0 7 -5.5 12.5t-12.5 5.5h-915q-7 0 -12.5 -5.5t-5.5 -12.5v-476q0 -7 5.5 -12.5t12.5 -5.5h915q7 0 12.5 5.5t5.5 12.5zM1097 805v-622q0 -38 -27 -65t-64 -27h-311q0 -21 9 -44t18 -40.5t9 -24.5q0 -15 -10.5 -26t-25.5 -11h-293q-15 0 -25.5 11t-10.5 26
q0 8 9 25t18 40t9 44h-311q-37 0 -64 27t-27 65v622q0 37 27 64t64 27h915q37 0 64 -27t27 -64z" />
    <glyph glyph-name="uniE618" unicode="&#xe618;" horiz-adv-x="1098" 
d="M439 238h219v55h-73v256h-65l-85 -79l44 -45q24 21 32 32h1v-164h-73v-55zM731 384q0 -40 -12 -81t-34 -76.5t-58 -58t-78.5 -22.5t-78.5 22.5t-58 58t-34 76.5t-12 81t12 81t34 76.5t58 58t78.5 22.5t78.5 -22.5t58 -58t34 -76.5t12 -81zM1024 238v292q-61 0 -103.5 43
t-42.5 104h-659q0 -61 -42.5 -104t-103.5 -43v-292q61 0 103.5 -43t42.5 -104h659q0 61 42.5 104t103.5 43zM1097 713v-658q0 -15 -11 -26t-25 -11h-1024q-15 0 -26 11t-11 26v658q0 15 11 26t26 11h1024q14 0 25 -11t11 -26z" />
    <glyph glyph-name="uniE619" unicode="&#xe619;" 
d="M0 896h459v-460h-459v460zM359 534v260h-260v-260h260zM564 895h460v-459h-460v459zM663 535h261v261h-261v-261zM0 331h460v-459h-460v459zM360 231h-260v-260h260v260zM678 218h-114v113h112v-114zM795 216v114h114v-114l2 1h-117zM677 217h118l-2 1v-117l1 1h-117
l2 -1v118zM909 216h114v-114h-114l1 -2v117zM678 -14h-114v114h114l-2 1v-117zM909 102v-117l1 1h-117l1 -2v117l-1 -1h117zM793 -14v-114h-115v114l-1 -2h117zM909 -15h114v-113h-113v114zM166 729h127v-127h-127v127zM860 728v-126h-130v126h130zM293 36h-128v128h128
v-128z" />
    <glyph glyph-name="uniE61A" unicode="&#xe61a;" 
d="M922 691q43 0 72.5 -30.5t29.5 -71.5v-563q0 -43 -29.5 -73t-72.5 -30h-52v768h52zM0 589q0 41 30.5 71.5t71.5 30.5h52v-768h-52q-41 0 -71.5 30t-30.5 73v563zM686 798v-107h113v-768h-574v768h113v107q100 47 174 47t174 -47zM625 691v68q-54 24 -113 24
q-55 0 -113 -24v-68h226z" />
    <glyph glyph-name="uniE61B" unicode="&#xe61b;" 
d="M832 -44h-645q-59 0 -78.5 35.5t12.5 85.5l281 444v223h-36q-14 0 -25 10.5t-11 25.5t11 25.5t25 10.5h287q14 0 24.5 -10.5t10.5 -25.5t-10.5 -25.5t-24.5 -10.5h-36v-223l281 -444q32 -50 12.5 -85.5t-78.5 -35.5zM310 243h399l-153 240l-11 17v244h-71v-244l-12 -17z
" />
    <glyph glyph-name="uniE61C" unicode="&#xe61c;" 
d="M835 811h-646q-22 0 -37.5 -15t-15.5 -35v-759q0 -31 23 -41q25 -11 94 21q105 49 208 97q51 23 105 -2q31 -14 105.5 -49t99.5 -46q69 -32 94 -21q23 10 23 41v759q0 20 -15.5 35t-37.5 15zM760 480l-72 -87q-18 -21 -17 -48l4 -110q0 -11 -7.5 -16t-18.5 -2l-110 38
q-27 9 -54 0l-110 -38q-11 -3 -18.5 2t-7.5 16l4 110q1 27 -17 48l-72 87q-7 9 -4 17.5t14 11.5l113 30q27 7 44 30l65 91q7 9 16.5 9t15.5 -9l66 -91q16 -23 43 -30l113 -30q11 -3 14 -11.5t-4 -17.5z" />
    <glyph glyph-name="uniE61D" unicode="&#xe61d;" 
d="M540 556q7 -12 15 -26q133 56 195 158q-41 33 -89 53q-71 30 -149 30q-60 0 -117 -18q76 -83 145 -197zM619 492q-17 -9 -34 -16q16 -31 29 -63q135 29 280 -20q-1 76 -30 145q-25 59 -68 107q-63 -95 -177 -153zM488 523q-33 54 -71 105t-52.5 67t-22.5 24q-5 6 -8 9
q-51 -27 -92 -68q-53 -53 -82 -122q-13 -32 -21 -65q123 -9 247 11q58 9 110 25zM884 331q-129 46 -246 25q6 -14 11 -28q47 -134 57 -267q41 24 76 59q53 53 82 121q18 43 25 89zM394 307q76 60 160 90q-13 29 -27 57q-62 -20 -133 -31q-87 -14 -180 -14q-46 0 -83 3
q-1 -11 -1 -22q0 -78 30 -149q27 -63 75 -113q64 103 159 179zM645 38q-7 148 -67 302q-76 -26 -146 -81q-92 -73 -151 -173q38 -29 82 -48q71 -30 149 -30q69 0 134 24v1q-1 4 -1 5z" />
    <glyph glyph-name="uniE61E" unicode="&#xe61e;" 
d="M497 589v-178h-369v143q0 17 12 29t28 12h169q-79 16 -81 64q-1 37 33.5 71t82.5 23.5t85 -41.5t75 -77q24 31 44.5 52t54.5 42.5t69 25.5q44 6 78 -28t29 -67q-8 -49 -84 -65h166q17 0 28.5 -12t11.5 -29v-142h-369l-1 179zM379 717q-43 17 -69 -25q-18 -31 -4 -45
q40 -41 186 -26q-60 75 -113 96zM757 647q9 11 6 27t-14.5 28t-28.5 18t-36 -3q-55 -26 -112 -95q39 -3 77 -2q90 4 108 27zM500 -16h-301q-15 0 -26 11t-11 26v362h338v-399zM895 21q0 -15 -10.5 -26t-26.5 -11h-300v399h337v-362z" />
    <glyph glyph-name="uniE61F" unicode="&#xe61f;" 
d="M923 406l-382 315q-14 11 -31 10t-29 -14l-380 -312q-14 -12 -15.5 -30t10.5 -32l19 -22q12 -14 30.5 -15.5t32.5 10.5l335 277l334 -280q14 -12 32 -10.5t30 15.5l19 26q12 14 10.5 32.5t-15.5 29.5zM513 478l-309 -254v-143q0 -18 12.5 -31t31.5 -13h528q19 0 31.5 13
t12.5 31v140z" />
    <glyph glyph-name="uniE620" unicode="&#xe620;" 
d="M178 484q42 0 71 -29t29 -71t-29 -71t-71 -29t-71 29t-29 71t29 71t71 29zM512 484q42 0 71 -29t29 -71t-29 -71t-71 -29t-71 29t-29 71t29 71t71 29zM846 484q42 0 71 -29t29 -71t-29 -71t-71 -29t-71 29t-29 71t29 71t71 29z" />
    <glyph glyph-name="uniE621" unicode="&#xe621;" 
d="M834 301q65 0 111 -46t46 -111t-46 -111.5t-111 -46.5t-111 46.5t-46 111.5q0 44 23 81t61 57l-64 129q-66 -47 -146 -47q-58 0 -112 26l-72 -121q34 -28 54 -69t20 -88q0 -84 -60 -144t-145 -60t-145 60t-60 144.5t60 144.5t145 60q40 0 77 -15l74 123
q-41 36 -64.5 85.5t-23.5 105.5q0 104 74 178t178 74t178 -74t74 -178q0 -90 -58 -160l78 -156q1 0 5 0.5t6 0.5z" />
    <glyph glyph-name="uniE622" unicode="&#xe622;" 
d="M512.5 821q-119.5 0 -220 -58.5t-159 -159t-58.5 -220t58.5 -220t159 -158.5t219.5 -58q29 0 51 21.5t22 51t-19 48.5q-20 29 -20 49q0 29 22 50.5t51 21.5h88q102 0 172 70.5t70 172.5q0 106 -58 195t-158.5 141.5t-220 52.5zM245 384q-29 0 -51 21.5t-22 51t22 51
t51 21.5t51 -21.5t22 -51t-22 -51t-51 -21.5zM391 578q-29 0 -51 22t-22 51t22 51t51 22t51 -22t22 -51t-22 -51t-51 -22zM634 578q-29 0 -51 22t-22 51t22 51t51 22t51 -22t22 -51t-22 -51t-51 -22zM779.5 384q-29.5 0 -51 21.5t-21.5 51t21.5 51t51 21.5t51 -21.5
t21.5 -51t-21.5 -51t-51 -21.5z" />
    <glyph glyph-name="uniE623" unicode="&#xe623;" 
d="M939 599q0 -68 -48.5 -116t-116.5 -48h-524q-68 0 -116.5 48t-48.5 116t48.5 116.5t116.5 48.5h524q68 0 116.5 -48.5t48.5 -116.5zM773.5 717q-48.5 0 -83 -34.5t-34.5 -83t34.5 -83t83 -34.5t83 34.5t34.5 83t-34.5 83t-83 34.5zM85 169q0 68 48.5 116t116.5 48h524
q68 0 116.5 -48t48.5 -116t-48.5 -116.5t-116.5 -48.5h-524q-68 0 -116.5 48.5t-48.5 116.5zM250.5 51q48.5 0 83 34.5t34.5 83t-34.5 83t-83 34.5t-83 -34.5t-34.5 -83t34.5 -83t83 -34.5z" />
    <glyph glyph-name="uniE624" unicode="&#xe624;" 
d="M927 -60h-820q-18 0 -30 12t-12 30v817q0 18 7 25t24.5 7t24.5 -7t7 -25v-796h799q17 0 24 -7t7 -24.5t-7 -24.5t-24 -7zM848 66h-96q-20 0 -34 12t-14 29v431q0 17 14 29.5t34 12.5h96q20 0 34 -12.5t14 -29.5v-431q0 -17 -14 -29t-34 -12zM591 66h-98q-20 0 -34.5 12
t-14.5 29v619q0 17 14.5 29.5t34.5 12.5h98q20 0 34.5 -12.5t14.5 -29.5v-619q0 -17 -14.5 -29t-34.5 -12zM333 66h-94q-20 0 -33.5 12t-13.5 29v234q0 17 13.5 29.5t33.5 12.5h94q20 0 33.5 -12.5t13.5 -29.5v-234q0 -17 -13.5 -29t-33.5 -12zM344 66z" />
    <glyph glyph-name="uniE625" unicode="&#xe625;" 
d="M542 482q55 38 80 72.5t23.5 62t-15 53.5t-32 51t-31 48.5t-8.5 52t32 57.5q-43 -7 -66.5 -34t-26.5 -58t2.5 -57.5t16.5 -37.5q4 -4 18 -14t24.5 -19t20 -26.5t10.5 -36.5t-10.5 -49t-37.5 -65zM412 482q45 31 65.5 59t19.5 51t-12 44t-26.5 41t-25.5 39.5t-6.5 42.5
t25.5 47q-35 -6 -54.5 -28t-21.5 -47.5t2.5 -47.5t12.5 -30q4 -4 15 -12t20 -15t16.5 -21t8.5 -30t-8.5 -40t-30.5 -53zM968 306q-2 8 -7 18q-1 3 -2 4q-4 9 -10 16v1q-5 7 -12 14q-2 2 -3 2q-8 7 -15 13h-1q-7 5 -17 10q-1 0 -1.5 0.5t-1.5 0.5q-19 9 -41 13h-2
q-12 2 -23 3q-3 19 -17.5 34.5t-32.5 15.5h-578q-20 0 -35.5 -18.5t-15.5 -40.5v-20v-1v-1v-1q2 -28 6 -59t17.5 -81t32.5 -92.5t54.5 -84.5t80.5 -66h301q11 10 22.5 22t19.5 21.5t19.5 25.5t16 22t16.5 24t13 20q9 -2 21 -4h4q12 -1 21 -1h1q9 1 21 2q3 1 5 1q13 3 22 5
q67 20 102.5 73.5t18.5 108.5zM229 392h85q-3 -5 -6 -13.5t-7 -40t0 -69t23.5 -100.5t54.5 -132q-33 17 -59 46t-41 61.5t-26.5 68t-15 66.5t-7 57.5t-2 40t0.5 15.5zM832 176q-7 -2 -17 -4h-5q-10 -1 -17 -1h-2h-2q-1 1 -8 2q47 85 51 172q28 -3 48 -18.5t27 -38.5
q10 -34 -12 -67t-63 -45zM69 -36q-1 -2 -1 -6t2 -14t7 -17.5t18 -14t33 -6.5h710q25 0 38 14.5t14 28.5l1 15h-822z" />
    <glyph glyph-name="uniE626" unicode="&#xe626;" 
d="M888 503h-752q-21 0 -36 -15t-15 -37v-357q0 -21 15 -36t36 -15h752q21 0 36 15t15 36v357q0 22 -15 37t-36 15zM254 407q28 0 47.5 -20t19.5 -48t-19.5 -48t-47.5 -20t-47.5 20t-19.5 48t19.5 48t47.5 20zM843 316h-467v47h467v-47zM843 152h-657v47h657v-47zM837 620
h-650q-19 0 -32.5 -14t-13.5 -33v-24h742v24q0 19 -13.5 33t-32.5 14zM195 666v17q0 17 12.5 29.5t29.5 12.5h550q17 0 29.5 -12.5t12.5 -29.5v-17h-634z" />
    <glyph glyph-name="uniE627" unicode="&#xe627;" 
d="M512 340q61 0 104.5 50t50.5 129q8 94 -39 141q-40 41 -116 41t-116 -41q-47 -47 -39 -141q7 -79 50.5 -129t104.5 -50zM647 294q-8 3 -18 3q-13 0 -22 -4q-55 -28 -95 -28q-18 0 -42.5 7.5t-36.5 12.5t-16 8q-19 10 -40 1q-15 -6 -34.5 -15.5t-53.5 -28t-56 -40
t-22 -38.5q0 -28 26 -49t70.5 -32.5t96 -17.5t108.5 -6t108.5 6t96 17.5t70.5 32.5t26 49q0 17 -22.5 38.5t-56 40t-53 28t-34.5 15.5zM742 513q-7 -75 -43 -134q12 -3 24 -3q49 0 84.5 41t41.5 106q7 76 -32 114q-33 33 -94 33h-10q38 -64 29 -157zM967 239q0 14 -18 31
t-45.5 32.5t-43 23t-28.5 12.5q-6 3 -14 3q-11 0 -18 -4q-30 -13 -44 -17q131 -71 133 -147q78 22 78 66zM282 513q7 -75 43 -134q-12 -3 -24 -3q-49 0 -84.5 41t-41.5 106q-7 76 32 114q33 33 94 33q2 0 10 -1q-38 -63 -29 -156zM57 239q0 14 18 31t45.5 32.5t43 23
t28.5 12.5q6 3 14 3q11 0 18 -4q30 -13 44 -17q-131 -71 -133 -147q-78 22 -78 66z" />
    <glyph glyph-name="uniE628" unicode="&#xe628;" 
d="M518 423q-50 -1 -103 -5q26 -17 27 -18q11 -7 13 -7q-6 -10 -13 -17l-12 -15h164q-2 1 -5.5 3t-3.5 3l-10 6q1 1 4 6q1 1 9 13q6 10 10 16q9 14 10 17q-38 1 -90 -2zM417 312v-98h127q15 1 29 6q10 6 19 16q10 10 10 29l-1 47h-184zM304 407v-53q11 9 25 22q14 14 32 37
q-20 -2 -29 -3q-17 -2 -28 -3zM512 864q-98 0 -187 -38t-153 -102t-102 -153t-38 -187q0 -199 140.5 -339.5t339.5 -140.5q98 0 187 38t153 102t102 153t38 187q0 199 -140.5 339.5t-339.5 140.5zM843 556h-154q3 -2 9 -5.5t9 -5.5q2 -1 7.5 -4.5t8.5 -5.5q7 -3 11 -7l5 -1
q-13 -23 -28 -39q-14 -14 -26 -23q30 -2 31 -2q27 -4 48 -13q21 -10 36 -23q14 -12 23 -27q8 -14 8 -28v-78v-20v-20q1 -17 -2 -38q-1 -16 -7 -34q-6 -16 -17 -26q-16 -13 -35 -20q-21 -7 -38 -8q-21 -2 -36 -1q-19 2 -28 3l7 13q2 5 5 12q2 4 5 12q1 2 6 14q13 0 21 2
q7 2 12 9q5 9 6 19q1 7 2 28q1 10 1 21v83q0 18 -3 33q-2 14 -10 24q-10 10 -25 14q-17 6 -42 8q-3 1 -6 1q-2 0 -7 1q36 -26 42 -30q5 -4 13 -9.5t11 -7.5l15 -10l-19 -57q-2 1 -5 2q-6 1 -16 5v-75q0 -19 -8 -35t-20 -26q-14 -12 -31 -17q-17 -6 -36 -6l-73 -1l-171 1v131
v21q-2 -1 -7 -2q-1 -1 -5 -2q-2 -1 -5 -1l-21 19v-196h-99v342h99v-13q7 1 9 1q3 1 9 1q-8 15 -14 31q-7 16 -15 51h101q9 -35 13 -46q1 -5 4.5 -15.5t4.5 -14.5q55 3 91 4q39 1 76 0q1 1 3.5 4.5t7 9.5t8.5 12q17 25 38 61h-459v49h268v36h128v-36h266v-49z" />
    <glyph glyph-name="uniE629" unicode="&#xe629;" 
d="M49 106l373 -196q17 -9 34 -0.5t17 25.5v383q0 17 -17 26l-373 199q-17 9 -34 0.5t-17 -26.5v-385q0 -17 17 -26zM602 -92l374 200q16 9 16 26v382q0 17 -17 26t-34 0l-373 -197q-17 -8 -17 -26v-385q0 -17 17.5 -26t33.5 0zM496 860l-368 -195q-16 -9 -16 -26t16 -26
l368 -195q17 -9 35 0l367 195q17 9 17 26t-17 26l-368 195q-17 9 -34 0z" />
    <glyph glyph-name="uniE62A" unicode="&#xe62a;" 
d="M832 372q-8 3 -36 3h-40l-16 -79h17q45 0 59.5 5.5t23 18t8.5 26.5q0 10 -4 16.5t-12 9.5zM576 370q-7 4 -32 4h-62l-15 -73h30q45 0 60 5t23 17t8 24q0 15 -12 23zM991 582q-1 3 -1 5q-4 13 -11 20l-174 234q-13 13 -31 13h-524q-18 0 -31 -13l-174 -234q-7 -7 -11 -20
q0 -1 -1 -5q0 -1 -0.5 -3t-0.5 -3v-547q0 -52 37 -88.5t89 -36.5h708q52 0 89 36.5t37 88.5v547q0 1 -0.5 3t-0.5 3zM268 767h488l87 -147h-662zM355 312l-9 -46h-142l-17 -74h159l-10 -45h-213l57 273h202l-9 -46h-146l-13 -62h141zM623 290.5q-21 -22.5 -63 -27.5
q11 -10 21 -26q19 -32 41 -90h-60q-7 23 -28 72q-12 26 -25 35q-8 6 -28 6h-23l-23 -113h-56l57 273h121q31 0 49 -7q17 -6 28 -23q10 -18 10 -42q0 -35 -21 -57.5zM897 310.5q-8 -19.5 -20 -31t-25 -17.5q-14 -6 -36 -9q-13 -2 -50 -2h-36l-21 -104h-57l58 273h111
q29 0 46 -7t28 -23q10 -16 10 -39q0 -21 -8 -40.5z" />
    <glyph glyph-name="uniE62B" unicode="&#xe62b;" 
d="M473 321q89 0 152.5 71.5t73.5 184.5q13 133 -56 200q-59 58 -170 58t-170 -58q-69 -67 -57 -200q11 -113 74.5 -184.5t152.5 -71.5zM546 133q0 64 31 119q-63 -25 -104 -25q-26 0 -61.5 10.5t-55 19t-22.5 10.5q-12 6 -29 6.5t-30 -4.5q-22 -9 -50.5 -22.5t-78 -40
t-82 -57t-32.5 -55.5q0 -39 38 -69t103 -46.5t140.5 -24.5t159.5 -8q80 0 152 7q-79 73 -79 180zM978 171l-24 6q-7 2 -10 10l-7 15q-3 7 1 13l13 22q7 13 -3 23l-28 28q-10 10 -23 3l-23 -14q-7 -3 -14 0l-13 5q-7 3 -9 10l-7 26q-4 14 -18 14h-40q-14 0 -18 -14l-7 -26
q-2 -7 -9 -10l-13 -5q-8 -3 -14 0l-23 14q-13 7 -23 -3l-28 -28q-10 -10 -3 -23l13 -22q4 -6 0 -13l-6 -16q-3 -7 -10 -9l-24 -6q-14 -4 -14 -18v-40q0 -14 14 -18l22 -6q7 -2 9 -9l8 -19q3 -7 -1 -13l-11 -19q-7 -13 3 -23l28 -28q10 -10 23 -3l18 11q6 3 13 0l21 -9
q7 -2 9 -10l5 -19q4 -14 18 -14h40q14 0 18 14l5 19q2 8 9 10l21 9q7 3 13 0l18 -11q12 -7 23 3l28 28q10 10 3 23l-11 19q-4 6 -1 14l7 18q3 8 10 9l22 6q14 4 14 18v40q0 14 -14 18zM793 13q-50 0 -85 35.5t-35 85t35 84.5t85 35t85 -35t35 -84.5t-35 -85t-85 -35.5z" />
    <glyph glyph-name="uniE62C" unicode="&#xe62c;" horiz-adv-x="1025" 
d="M970 227h-59v148q0 11 -8 19t-19 8h-345v115h214q25 0 42 17t17 42v214q0 24 -17 41t-42 17h-482q-24 0 -41.5 -17t-17.5 -41v-214q0 -25 17.5 -42t41.5 -17h214v-115h-344q-12 0 -20 -8t-8 -19v-148h-59q-22 0 -38 -16t-16 -38v-199q0 -23 16 -39t38 -16h170
q23 0 38.5 16t15.5 39v199q0 22 -15.5 38t-38.5 16h-56v120h317v-120h-58q-22 0 -38 -16t-16 -38v-199q0 -23 16 -39t38 -16h170q23 0 38.5 16t15.5 39v199q0 22 -15.5 38t-38.5 16h-58v120h317v-120h-56q-22 0 -38 -16t-16 -38v-199q0 -23 16 -39t38 -16h170q23 0 38.5 16
t15.5 39v199q0 22 -15.5 38t-38.5 16z" />
    <glyph glyph-name="uniE62D" unicode="&#xe62d;" 
d="M818 334v415q0 48 -34 82t-82 34h-554q-48 0 -82 -34t-34 -82v-687q0 -48 34 -82t82 -34l725 1q1 0 3.5 -0.5t4.5 -0.5q46 0 78.5 32.5t32.5 78.5v277h-174zM189 666h341q22 0 38 -16t16 -38t-16 -38t-38 -16h-341q-22 0 -38 16t-16 38t16 38t38 16zM671 135h-487
q-21 0 -35.5 14.5t-14.5 35t14.5 35t35.5 14.5h487q20 0 35 -14.5t15 -35t-15 -35t-35 -14.5zM671 342h-487q-21 0 -35.5 14.5t-14.5 35t14.5 35t35.5 14.5h487q20 0 35 -14.5t15 -35t-15 -35t-35 -14.5zM934 57q0 -22 -15.5 -37.5t-37.5 -15.5t-37.5 15.5t-15.5 37.5v219
h106v-219z" />
    <glyph glyph-name="uniE62E" unicode="&#xe62e;" 
d="M759 794q-109 70 -239 70q-132 0 -241 -72q46 -27 73 -72q78 45 168 45q87 0 164 -42q27 45 75 71zM322 627q0 60 -42.5 102.5t-102.5 42.5t-102.5 -42.5t-42.5 -102.5t42.5 -102.5t102.5 -42.5t102.5 42.5t42.5 102.5zM521 197q-60 0 -102.5 -42.5t-42.5 -103t42.5 -103
t102.5 -42.5t102.5 42.5t42.5 103t-42.5 103t-102.5 42.5zM702 627q0 -60 42.5 -102.5t102.5 -42.5t102.5 42.5t42.5 102.5t-42.5 102.5t-102.5 42.5t-102.5 -42.5t-42.5 -102.5zM860 436v-6v-5q0 -90 -44 -166.5t-118 -122.5q22 -41 22 -87v-15q108 56 173.5 160.5
t65.5 230.5q0 18 -2 37q-45 -25 -97 -26zM181 425v11h-2h-2q-50 0 -94 22q-1 -18 -1 -33q0 -126 65.5 -230.5t173.5 -159.5q-1 8 -1 14q0 46 23 87q-75 46 -118.5 122.5t-43.5 166.5z" />
    <glyph glyph-name="uniE62F" unicode="&#xe62f;" 
d="M512 864q-98 0 -186.5 -38t-153 -102.5t-102.5 -153t-38 -186.5t38 -186.5t102.5 -153t153 -102.5t186.5 -38t186.5 38t153 102.5t102.5 153t38 186.5t-38 186.5t-102.5 153t-153 102.5t-186.5 38zM484 484h-98q-42 0 -71 -29t-29 -71t29 -71t71 -29h98v-82h-98
q-75 0 -128.5 53.5t-53.5 128.5t53.5 128.5t128.5 53.5h98v-82zM638 202h-98v82h98q42 0 71 29t29 71t-29 71t-71 29h-98v82h98q75 0 128.5 -53.5t53.5 -128.5t-53.5 -128.5t-128.5 -53.5z" />
    <glyph glyph-name="uniE630" unicode="&#xe630;" 
d="M32 -5q0 -8 6 -14t14 -6h115q8 0 14 6t6 14v295l-155 -121v-174zM263 365v-370q0 -8 6 -14t14 -6h115q8 0 14 6t6 14v375l-70 62zM530 256v0l-33 28v-289q0 -8 6 -14t14 -6h116q8 0 14 6t6 14v357zM732 430v-435q0 -8 5.5 -14t14.5 -6h115q8 0 14 6t6 14v553v3zM736 787
l78 -91l-281 -236l-183 176l-318 -266v-102l316 263l182 -176l336 280l81 -94l45 252z" />
    <glyph glyph-name="uniE631" unicode="&#xe631;" 
d="M266 502h638q14 0 25 8.5t14 21.5l26 115q3 16 -7 28.5t-26 12.5h-676l-40 106q-6 18 -38 18h-117q-14 0 -23.5 -9.5t-9.5 -22.5q1 -30 41 -30h79l52 -133l26 -88q4 -12 13.5 -19.5t22.5 -7.5zM279 440q-12 0 -19 -9.5t-5 -20.5l47 -188q3 -13 14 -20t23 -5l529 72
q13 1 22.5 10.5t11.5 22.5l18 97q3 16 -7.5 28.5t-26.5 12.5h-607zM328 159q-36 -3 -62 -29t-29 -62q-5 -48 29 -82.5t83 -29.5q36 4 61.5 29.5t29.5 61.5q5 49 -29.5 83t-82.5 29zM879 159q-36 -3 -61.5 -29t-29.5 -62q-5 -48 29.5 -82.5t82.5 -29.5q36 4 62 29.5t29 61.5
q5 49 -29 83t-83 29z" />
    <glyph glyph-name="uniE632" unicode="&#xe632;" 
d="M457.5 330q86.5 0 147.5 69t71 178q12 128 -55 193q-56 56 -163 56t-164 -56q-67 -65 -55 -193q10 -109 71 -178t147.5 -69zM528 149q0 60 30 114q-61 -24 -100 -24q-25 0 -60.5 10.5t-51 17.5t-23.5 10q-11 6 -27.5 6.5t-28.5 -4.5q-21 -8 -49 -21t-75.5 -38.5t-79 -55
t-31.5 -53.5q0 -38 37 -66.5t99.5 -45t135 -24t154.5 -7.5q76 0 146 7q-76 70 -76 174zM750 71q-1 3 -3.5 3t-3.5 -3l-19 -40q-49 29 -64 84q-13 50 8 96q28 60 92 77q7 2 14 3q6 1 4 6l-21 42q-1 4 -4 3q-1 0 -7 -2q-41 -11 -74.5 -38.5t-51.5 -68.5q-30 -64 -12 -132
q21 -77 90 -118q3 -2 2 -5l-14 -31q-2 -2 0 -4.5t5 -1.5l103 28q6 1 3 6zM985 202q-20 77 -88 117q-4 2 -2 6l15 33q1 2 -0.5 4t-4.5 2l-104 -27q-5 -2 -3 -7l47 -97q1 -2 4 -2t4 3l15 34q3 4 7 1q44 -29 58 -81q13 -49 -8 -96q-28 -60 -92 -77q-5 -1 -11 -2q-6 -2 -4 -7
l21 -42q1 -3 5 -2q1 0 3 1q41 11 74.5 39t52.5 68q30 64 11 132z" />
    <glyph glyph-name="uniE633" unicode="&#xe633;" 
d="M459 359q79 0 135.5 71t65.5 183q11 133 -50 200q-53 57 -151 57t-151 -57q-61 -67 -50 -200q9 -112 65.5 -183t135.5 -71zM628 222q0 36 14 70q-6 2 -8 3q-10 5 -24 5q-16 0 -28 -7q-71 -39 -123 -39q-23 0 -55 10.5t-47.5 18t-20.5 10.5q-11 6 -26 6.5t-26 -4.5
q-19 -9 -45 -22.5t-69.5 -39.5t-72.5 -56t-29 -55q0 -37 31 -65.5t84 -45.5t115 -25.5t133 -10.5l202 204q-5 22 -5 43zM913.5 322.5q-42.5 42.5 -102.5 42.5t-102 -42q-33 -33 -40.5 -79t12.5 -86l-181 -180l4 -65l65 -3l72 71l-4 4q-2 2 -8 9t-8.5 12t-5 11.5t2.5 9.5
q5 5 16.5 -1t20 -13.5t8.5 -8.5l-22 -23l45 46q-1 1 -3 3.5t-8 9t-8.5 11.5t-5 12t1.5 9q5 5 16.5 -0.5t20.5 -13.5t9 -9l40 41q40 -20 86 -12.5t79 40.5q42 42 42 102t-42.5 102.5zM618 -42l-23 -22q-1 0 -2 1.5t-4.5 5t-6.5 7.5t-6 8.5t-4.5 8.5t-1.5 8t2 6q5 5 16.5 -1
t20.5 -13.5t9 -8.5zM845.5 186q-14.5 -14 -34.5 -14t-34 14t-14 34t14 34.5t34 14.5t34.5 -14.5t14.5 -34.5t-14.5 -34z" />
    <glyph glyph-name="uniE634" unicode="&#xe634;" 
d="M219.5 167q-24.5 0 -41.5 -17t-17 -41.5t17 -41.5t41.5 -17t41.5 17t17 41.5t-17 41.5t-41.5 17zM827.5 167q-24.5 0 -41.5 -17t-17 -41.5t17 -41.5t41.5 -17t41.5 17t17 41.5t-17 41.5t-41.5 17zM141 727q-23 0 -43 -10.5t-35 -27.5q-14 -17 -23 -38q-8 -20 -8 -42v-467
q0 -17 10 -26t25 -9h35v1v1q0 49 34 83.5t83 34.5t83.5 -34.5t34.5 -83.5v-1v-1h225q14 0 24.5 10t10.5 25l-2 585h-454zM992 247q-1 35 -6 72q-7 51 -24 104q-18 53 -52 100q-19 26 -47 45t-60 30.5t-64 16.5q-38 6 -62 2q-24 -3 -24 -37v-441q0 -14 9.5 -23.5t23.5 -9.5
h24v1v2q0 49 34.5 83t83 34t83 -34t34.5 -83v-3h14q14 0 23.5 9.5t9.5 23.5v105v2v1zM915 330.5q-8 -0.5 -19 -0.5h-167q-6 0 -13 6q-4 4 -7 12v162q0 9 8 18q4 4 7 5.5t15.5 4.5t32.5 0q22 -2 49 -12q21 -7 39 -25q28 -28 40 -69q12 -40 22 -85q0 -2 0.5 -3t0.5 -2
q0 -11 -8 -11.5z" />
    <glyph glyph-name="uniE635" unicode="&#xe635;" 
d="M961 750q-97 60 -215 60q-103 0 -204 -45v-588q0 -12 -9 -21t-21 -9t-21 9t-9 21v588q-100 45 -204 45q-118 0 -215 -60q-31 -19 -31 -56v-650q0 -39 33.5 -58t66.5 2q65 39 146 39q103 0 200 -59q15 -9 34 -9t34 9q97 59 200 59q81 0 146 -39q33 -21 66 -2q34 19 34 58
v650q0 37 -31 56z" />
    <glyph glyph-name="uniE636" unicode="&#xe636;" 
d="M512 558q-72 0 -123 -51t-51 -123t51 -123t123 -51t123 51t51 123t-51 123t-123 51zM902 427q-15 137 -112.5 234.5t-234.5 112.5v90h-88v-90q-136 -15 -233 -112.5t-112 -234.5h-90v-88h90q15 -137 112.5 -234t234.5 -113v-88h88v90q137 15 234 112.5t113 234.5h88v88
h-90v-2zM512 78q-127 0 -216.5 89.5t-89.5 216.5t89.5 216.5t216.5 89.5t216.5 -89.5t89.5 -216.5t-89.5 -216.5t-216.5 -89.5z" />
    <glyph glyph-name="uniE637" unicode="&#xe637;" 
d="M673 110q0 -37 26 -63.5t63 -26.5t63 26.5t26 63.5t-26 63t-63 26t-63 -26t-26 -63zM134 110q0 -37 26.5 -63.5t63 -26.5t62.5 26.5t26 63.5t-26 63t-62.5 26t-63 -26t-26.5 -63zM41 439l86 115q1 2 5 7t5 6l5 5l5 5l5 5q3 3 5.5 4t6 3t6.5 2.5t7 1t8 0.5h173
q16 0 27.5 -11.5t11.5 -27.5v-386q0 -16 -11.5 -27.5t-27.5 -11.5q-7 50 -45 84t-89.5 34t-89.5 -34t-46 -84h-38q-16 0 -27 11.5t-11 27.5v193q0 16 7 35.5t15 31.5l7 11v0zM281 361v155h-94q-3 0 -6.5 -2.5t-5.5 -4.5l-3 -2l-81 -113q-15 -22 -15 -33h205zM474 748h500
q16 0 27 -11.5t11 -27.5v-541q0 -16 -11 -27.5t-27 -11.5h-77q-7 50 -45.5 84t-89.5 34t-89.5 -34t-45.5 -84h-153q-16 0 -27.5 11.5t-11.5 27.5v541q0 16 11.5 27.5t27.5 11.5z" />
    <glyph glyph-name="uniE638" unicode="&#xe638;" 
d="M360 458h-284q-18 0 -31 12.5t-13 30.5v285q0 18 13 31t31 13h284q19 0 31.5 -13t12.5 -31v-285q0 -18 -12.5 -30.5t-31.5 -12.5zM920 693h-340q-28 0 -48 20t-20 48.5t20 48.5t48 20h340q29 0 49 -20t20 -48.5t-20 -48.5t-49 -20zM920 458h-340q-28 0 -48 20t-20 48
t20 48.5t48 20.5h340q29 0 49 -20.5t20 -48.5t-20 -48t-49 -20zM364 -62h-285q-18 0 -31 13t-13 31v285q0 18 13 31t31 13h285q18 0 30.5 -13t12.5 -31v-285q0 -18 -12.5 -31t-30.5 -13zM923 173h-339q-29 0 -49 20.5t-20 48.5t20 48.5t49 20.5h339q29 0 49 -20.5t20 -48.5
t-20 -48.5t-49 -20.5zM923 -62h-339q-28 0 -48.5 20t-20.5 48.5t20 48.5t49 20h339q29 0 49 -20t20 -48t-20 -48.5t-49 -20.5z" />
    <glyph glyph-name="uniE639" unicode="&#xe639;" 
d="M991 91q5 -29 -12 -52t-46 -28l-116 -18q-28 -5 -51.5 12t-28.5 46l-98 623q-2 14 1.5 27.5t11 24.5t19.5 18t27 10l114 18q29 5 52.5 -12.5t28.5 -45.5zM506 776q29 0 49 -20t20 -49v-645q0 -29 -20 -49t-49 -20h-101q-29 0 -49 20t-20 49v645q0 29 15.5 49t45.5 20h109
zM506 290q9 0 16 9t7 22t-7 22t-16 9h-101q-9 0 -16 -9t-7 -22t7 -22t16 -9h101zM506 412q9 0 16 9.5t7 23t-7 21.5q-7 9 -16 9h-101q-9 0 -16 -8.5t-7 -22t7 -23t16 -9.5h101zM203 776q29 0 49.5 -20t20.5 -49v-645q0 -29 -20.5 -49t-49.5 -20h-101q-29 0 -49.5 20
t-20.5 49v645q0 29 20.5 49t49.5 20h101zM106 535q-10 0 -17 -8.5t-7 -22.5q0 -12 7 -21.5t17 -9.5h93q11 0 17 9t6 22q0 14 -6.5 22.5t-16.5 8.5h-93zM203 232q10 0 16.5 9t6.5 21q0 13 -6.5 21.5t-16.5 8.5h-97q-10 0 -17 -8.5t-7 -21.5t7 -21.5t17 -8.5h97zM203 351
q10 0 16.5 8.5t6.5 22t-6 22.5q-7 8 -17 8h-97q-10 0 -17 -8q-7 -9 -7 -22.5t7 -22t17 -8.5h97z" />
    <glyph glyph-name="uniE63A" unicode="&#xe63a;" 
d="M507 755l-165 104q-10 6 -20 1l-280 -157q-8 -4 -9.5 -13.5t4.5 -16.5l103 -112q11 -11 25 -4zM509 755l343 -198q13 -7 24 4l103 112q7 7 5.5 16.5t-10.5 13.5l-279 157q-10 5 -21 -1zM507 342l-340 196q-16 10 -28 -5l-101 -127q-6 -8 -4.5 -17.5t9.5 -14.5l299 -188
q16 -10 28 4zM511 342l140 -149q14 -16 33 -5l295 178q11 7 13 19t-6 21l-105 124q-14 18 -34 6zM670 114l-149 152q-5 5 -12 5t-12 -5l-126 -142q-9 -11 -21 -3l-169 111q-8 5 -16.5 0.5t-8.5 -14.5v-89q0 -9 8 -14l340 -209q8 -5 17 0l342 206q8 5 8 14v92q0 10 -8.5 14.5
t-16.5 -0.5z" />
    <glyph glyph-name="uniE63B" unicode="&#xe63b;" 
d="M781 463h11v18q0 15 -11 25.5t-26 10.5h-219v231q0 16 -11 27t-27 11h-380q-16 0 -27.5 -11t-11.5 -27v-620h-9q-15 0 -26.5 -11t-11.5 -27v-50q0 -16 11.5 -27.5t26.5 -11.5h521q-80 79 -80 192q0 112 79 191t191 79zM426 269q0 -16 -11 -27.5t-27 -11.5h-160
q-16 0 -27.5 11.5t-11.5 27.5v11q0 16 11.5 27.5t27.5 11.5h160q16 0 27 -11.5t11 -27.5v-11zM426 437q0 -16 -11 -27.5t-27 -11.5h-160q-16 0 -27.5 11.5t-11.5 27.5v11q0 16 11.5 27.5t27.5 11.5h160q16 0 27 -11.5t11 -27.5v-11zM426 617q0 -16 -11 -27t-27 -11h-160
q-16 0 -27.5 11t-11.5 27v12q0 16 11.5 27t27.5 11h160q16 0 27 -11t11 -27v-12zM977 233l-25 7q-8 2 -11 10l-7 16q-3 7 0 14l14 24q8 13 -3 24l-30 29q-10 11 -23 3l-25 -14q-7 -4 -15 0l-14 5q-8 3 -10 11l-7 28q-4 14 -19 14h-42q-15 0 -19 -14l-8 -28q-2 -8 -10 -11
l-14 -5q-7 -4 -14 0l-25 14q-13 8 -24 -3l-29 -29q-11 -11 -3 -24l13 -24q4 -7 0 -14l-7 -16q-3 -8 -10 -10l-26 -7q-14 -4 -14 -19v-42q0 -15 14 -19l24 -6q7 -2 10 -10l8 -20q3 -8 -1 -15l-12 -20q-7 -13 4 -23l29 -30q11 -11 24 -3l19 11q7 4 14 0l22 -9q8 -3 10 -11
l6 -21q4 -14 19 -14h42q15 0 19 14l5 21q3 8 10 11l22 9q8 4 15 0l19 -11q13 -8 23 3l30 30q11 10 3 23l-12 20q-3 7 0 15l8 20q2 8 10 10l23 6q15 4 15 19v42q0 15 -15 19zM780.5 66q-52.5 0 -89.5 37t-37 90t37 90t89.5 37t90 -37t37.5 -90t-37.5 -90t-90 -37z" />
    <glyph glyph-name="uniE63C" unicode="&#xe63c;" 
d="M914 864h-804q-32 0 -55 -23t-23 -55v-804q0 -32 23 -55t55 -23h804q32 0 55 23t23 55v804q0 32 -23 55t-55 23zM796 502q-8 -105 -83 -179q-83 -84 -201 -84t-201 84q-75 74 -83 179q-21 8 -35 27t-14 42q0 31 22 52.5t52.5 21.5t52 -21.5t21.5 -52.5q0 -40 -34 -62
q6 -86 69 -145t150 -59t150 59t69 145q-34 22 -34 62q0 31 21.5 52.5t52 21.5t52.5 -21.5t22 -52.5q0 -23 -14 -42t-35 -27z" />
    <glyph glyph-name="uniE63D" unicode="&#xe63d;" 
d="M344 643q-1 6 -1 10v1q0 42 30 72t72 30h136q42 0 72 -30t30 -72v-1q0 -5 -1 -10h72q1 7 1 10v1q0 71 -51 122.5t-123 51.5h-136q-72 0 -123 -51.5t-51 -122.5v-1v-10h73zM961 576q-31 31 -75 31h-748q-44 0 -75 -31t-31 -75v-455q0 -43 31 -74v-1q31 -31 75 -31h748
q44 0 75 31v1q31 31 31 74v455q0 44 -31 75zM637 227q14 0 24 -10.5t10 -24.5t-10 -24.5t-24 -10.5h-89v-61q0 -14 -10.5 -24.5t-24.5 -10.5t-24.5 10.5t-10.5 24.5v62h-89q-14 0 -24 10t-10 24t10 24.5t24 10.5h89v46h-89q-14 0 -24 10t-10 24.5t10 24.5t24 10h75l-81 81
q-10 10 -10 24.5t10 24.5t24.5 10t24.5 -10l81 -81l81 81q10 10 24.5 10t24.5 -10t10 -24.5t-10 -24.5l-81 -81h75q14 0 24 -10t10 -24.5t-10 -24.5t-24 -10h-89v-46h89z" />
    <glyph glyph-name="uniE63E" unicode="&#xe63e;" 
d="M531 177h-392q-3 0 -4.5 1t-1.5 4v51q0 5 6 5h374q-4 22 -4 42q0 105 74 179t178 74q96 0 168 -64v167q0 28 -27 57t-61 29h-721q-34 0 -61 -29t-27 -57v-475q0 -29 27 -62t61 -33h508q-65 41 -97 111zM133 542q0 5 6 5h151q6 0 6 -5v-1v-50q0 -5 -6 -5h-151
q-3 0 -4.5 1.5t-1.5 3.5v51zM133 387q0 5 6 5h341q6 0 6 -5v-51q0 -5 -7 -5h-340q-6 0 -6 5v51zM977 108l-77 77q16 26 23 55t5 59q-3 30 -15 58.5t-35 51.5q-26 26 -58.5 39t-66.5 13t-66 -13t-58 -39q-25 -26 -38.5 -58.5t-13.5 -66.5t13.5 -67.5t38.5 -58.5
q23 -24 51 -36t57 -15q29 -2 59 5t55 23l81 -78q13 -10 26 -11t25 12q10 12 8.5 23t-14.5 27zM859 238q-9 -21 -24.5 -37t-36 -25.5t-44.5 -9.5t-45 10q-21 9 -37 25q-15 15 -24 36.5t-9 46.5q0 23 9 45q9 21 24 37q16 16 36.5 25t45.5 9q24 0 44 -9q21 -9 36.5 -25
t24.5 -37.5t9 -44.5q0 -25 -9 -46z" />
    <glyph glyph-name="uniE63F" unicode="&#xe63f;" 
d="M919 654l-367 200q-19 10 -40 10t-40 -10l-367 -200q-21 -11 -33 -31.5t-12 -45.5v-387q0 -24 12 -44.5t33 -31.5l367 -200q19 -10 40 -10t40 10l367 200q21 11 33 31.5t12 44.5v388q0 24 -12 44.5t-33 31.5zM484 186q0 -12 -8.5 -20t-20.5 -8h-169q-12 0 -20 8t-8 20
v170q0 11 8 19.5t20 8.5h169q12 0 20.5 -8.5t8.5 -19.5v-170zM738 186q0 -12 -8.5 -20t-19.5 -8h-170q-12 0 -20 8t-8 20v170q0 11 8.5 19.5t19.5 8.5h170q11 0 19.5 -8.5t8.5 -19.5v-170zM738 440q0 -11 -8.5 -19.5t-19.5 -8.5h-170q-12 0 -20 8.5t-8 19.5v170
q0 11 8.5 19.5t19.5 8.5h170q11 0 19.5 -8.5t8.5 -19.5v-170z" />
    <glyph glyph-name="uniE640" unicode="&#xe640;" 
d="M907 779h-199q-36 0 -78.5 -18t-67.5 -43l-334 -334q-25 -25 -25 -60.5t25 -60.5l249 -249q25 -25 60 -25t60 25l335 335q25 24 42.5 67t17.5 78v199q0 35 -25 60.5t-60 25.5zM793 494q-35 0 -60 25t-25 60.5t25 60.5t60 25t60 -25t25 -60.5t-25 -60.5t-60 -25zM102 303
l304 -304q-24 -13 -52 -9t-48 24l-249 249q-25 25 -25 60.5t25 60.5l334 334q25 25 68 43t78 18l-435 -435q-8 -9 -8 -20.5t8 -20.5z" />
    <glyph glyph-name="uniE641" unicode="&#xe641;" 
d="M497 143q0 33 8 64h-324q-15 0 -25.5 10.5t-10.5 25t10.5 25t25.5 10.5h358q32 46 83 73t109 27q80 0 144 -49v491q0 18 -13 31t-31 13h-736q-18 0 -31 -13t-13 -31v-828q0 -19 13 -31.5t31 -12.5h506q-48 32 -76 83.5t-28 111.5zM145 620q0 15 10.5 25t25.5 10h564
q15 0 25.5 -10t10.5 -25t-10.5 -25t-25.5 -10h-564q-15 0 -25.5 10t-10.5 25zM181 467h564q15 0 25.5 -10.5t10.5 -25t-10.5 -25t-25.5 -10.5h-564q-15 0 -25.5 10.5t-10.5 25t10.5 25t25.5 10.5zM972 -61q-1 11 -14 28l-79 79q16 26 23 56q7 29 5 60q-3 30 -15 59
q-13 29 -36 53q-26 26 -59 39.5t-68 13.5q-34 0 -67 -14q-33 -13 -59 -39q-26 -27 -39 -60q-14 -33 -14 -68t14 -69q13 -33 39 -59q23 -25 51.5 -37t58.5 -14.5t60 4.5t56 23l82 -78q14 -11 27.5 -12t24.5 13q11 11 9 22zM838 99q-9 -21 -25 -38q-16 -15 -37.5 -25
t-45.5 -10q-25 0 -46 9.5t-37 25.5t-25 37.5t-9 47.5q0 24 9 45.5t25 37.5q16 17 37 26t46 9q24 0 45.5 -9t37.5 -26q16 -16 25 -38t9 -45q0 -25 -9 -47z" />
    <glyph glyph-name="uniE642" unicode="&#xe642;" 
d="M896 288h-120l-120 206q21 11 34.5 34t13.5 48v192q0 40 -28 68t-68 28h-192q-40 0 -68 -28t-28 -68v-192q0 -50 48 -82l-120 -206h-120q-40 0 -68 -28t-28 -68v-192q0 -40 28 -68t68 -28h192q40 0 68 28t28 68v62h192v-62q0 -40 28 -68t68 -28h192q40 0 68 28t28 68v192
q0 40 -28 68t-68 28zM416 134v58q0 36 -25 64t-61 32l110 192h139l111 -192q-37 -4 -62 -30.5t-25 -65.5v-58h-187z" />
    <glyph glyph-name="uniE643" unicode="&#xe643;" 
d="M848 864h-672q-40 0 -68 -28t-28 -68v-768q0 -40 28 -68t68 -28h672q40 0 68 28t28 68v768q0 40 -28 68t-68 28zM337 168h-96v96h96v-96zM337 362h-96v96h96v-96zM337 552h-96v96h96v-96zM796 168h-384v96h384v-96zM796 362h-384v96h384v-96zM796 552h-384v96h384v-96z
" />
    <glyph glyph-name="uniE644" unicode="&#xe644;" 
d="M886 -10v64h43v298h-234l-183 -102l-183 102h-297v428h106v-63h-43v-299h234l183 102l183 -102h297v-426h-106v-2zM713 631h-402q-18 0 -30.5 12t-12.5 31v74q0 -7 -7 -11l-95 -61q-3 -2 -10 -2q-6 0 -10.5 4t-4.5 9v120q0 6 4.5 10t10.5 4q7 0 10 -2l95 -61q7 -4 7 -12
v75q0 17 12 30t31 13h403q17 0 30 -12.5t13 -30.5v-149q-1 -18 -13 -29.5t-31 -11.5zM383 780q-14 0 -23 -9t-9 -22.5t9 -22.5t23 -9t23 9t9 22q1 12 -8.5 22t-23.5 10zM311 140h403q17 0 30 -12.5t13 -31.5v-74q0 8 6 11l95 61q3 2 10 2q6 0 10.5 -4t4.5 -9v-122
q0 -6 -4.5 -10t-10.5 -4q-7 0 -10 2l-95 61q-6 4 -6 12v-75q0 -17 -12.5 -30t-30.5 -13h-403q-18 0 -30.5 12.5t-12.5 30.5v149q0 19 12 31.5t31 12.5zM641 -10q14 0 23 9t9 22.5t-9 23t-23 9.5t-23 -9.5t-9 -22.5q-1 -14 8.5 -23t23.5 -9z" />
    <glyph glyph-name="uniE645" unicode="&#xe645;" 
d="M918 788l-404 76h-2l-397 -76l-31 -4q-4 -1 -4 -5v-485q0 -44 22.5 -87.5t58.5 -84.5t82 -78q48 -37 95 -65q48 -29 92 -47q45 -19 78 -26l9 -2h2l9 2q33 7 77 26q43 18 89 47q46 28 92 65q44 37 80 78q35 41 56 84q22 44 22 88v485q0 4 -4 5zM857 284q0 -34 -16 -67
t-44 -63q-28 -31 -62 -57q-35 -27 -73 -49q-38 -21 -77 -37q-36 -15 -66 -23q-6 -1 -6 5v429q0 4 -5 4h-336q-5 0 -5 5v300q0 4 4 5l336 58h2q4 -1 4 -5v-358q0 -5 5 -5h334q5 0 5 -4v-138z" />
    <glyph glyph-name="uniE646" unicode="&#xe646;" 
d="M986 587l-90 184q-16 33 -53 33h-665q-17 0 -31.5 -9t-21.5 -24l-87 -184q-6 -12 -6 -25v-539q0 -25 17 -42t42 -17h842q25 0 42 17t17 42v538q0 14 -6 26zM721 287l-196 -156q-9 -6 -18 -1.5t-9 15.5v88q0 7 -5 11.5t-12 4.5h-168q-7 0 -12 5t-5 12v68q0 6 5 11t12 5
h168q7 0 12 5t5 12v88q0 10 9.5 14.5t17.5 -1.5l197 -155q6 -5 6 -13t-7 -13zM881 588h-743q-7 0 -10.5 6t-0.5 13l65 130q4 7 12 7h612q8 0 11 -7l65 -130q3 -7 -0.5 -13t-10.5 -6z" />
    <glyph glyph-name="uniE647" unicode="&#xe647;" 
d="M992 329q-2 15 -21 38l-111 109q23 36 33 77q10 42 7 83q-3 42 -21 82t-50 73q-36 36 -83 54q-47 19 -95.5 19t-94.5 -19q-46 -18 -83 -54q-36 -37 -55 -83t-19 -93.5t19 -94.5t55 -82q33 -33 73 -50.5t81 -20.5q43 -4 85 6q43 10 79 33l115 -109q19 -15 38 -16t35 17
q15 16 13 31zM802.5 550q-12.5 -30 -35 -52t-52 -35.5t-63.5 -13.5q-35 0 -65 13.5t-52 35.5t-35 52t-13 64t13 63q13 31 35 53t52 35q29 13 65 13q34 0 63 -13q30 -13 52.5 -35.5t35.5 -52.5q12 -30 12 -63q0 -34 -12.5 -64zM228 596h-170q-11 0 -18.5 -7.5t-7.5 -17.5
v-145q0 -11 7.5 -18.5t18.5 -7.5h170q10 0 18 7.5t8 18.5v145q0 10 -8 17.5t-18 7.5zM228 348h-170q-11 0 -18.5 -7.5t-7.5 -17.5v-145q0 -11 7.5 -18.5t18.5 -7.5h170q10 0 18 7.5t8 18.5v145q0 10 -8 17.5t-18 7.5zM228 100h-170q-11 0 -18.5 -7.5t-7.5 -17.5v-145
q0 -11 7.5 -18.5t18.5 -7.5h170q10 0 18 7.5t8 18.5v145q0 10 -8 17.5t-18 7.5zM502 348h-170q-10 0 -18 -7.5t-8 -17.5v-145q0 -11 8 -18.5t18 -7.5h170q11 0 18.5 7.5t7.5 18.5v145q0 10 -7.5 17.5t-18.5 7.5zM502 100h-170q-10 0 -18 -7.5t-8 -17.5v-145q0 -11 8 -18.5
t18 -7.5h170q11 0 18.5 7.5t7.5 18.5v145q0 10 -7.5 17.5t-18.5 7.5zM776 100h-169q-11 0 -19 -7.5t-8 -17.5v-145q0 -11 8 -18.5t19 -7.5h169q11 0 18.5 7.5t7.5 18.5v145q0 10 -7.5 17.5t-18.5 7.5z" />
    <glyph glyph-name="uniE648" unicode="&#xe648;" 
d="M61 549q2 5 5.5 14.5t18 37.5t32.5 54.5t49.5 60t68 60t89 49.5t112.5 33q-45 -64 -87 -166q-1 -2 -9.5 0t-23.5 -2.5t-29.5 -11t-28 -24.5t-19.5 -43q-3 0 -27 -5.5t-69 -21t-82 -35.5zM241 559q-13 -3 -35.5 -9t-76.5 -28t-89 -48q-1 -7 -3.5 -19.5t-4 -51t2.5 -76.5
t20 -89.5t43 -97.5q4 -1 11.5 -2t31 -4.5t45.5 -5t55.5 -2.5t60.5 2q0 8 1 19.5t11 37t29 40.5q-6 14 -14 39.5t-18.5 96.5t-5.5 132q-2 1 -5.5 2t-13 6t-17.5 11.5t-16 19t-12 27.5zM139 80q3 -4 8 -11.5t24.5 -27.5t42 -38t60.5 -39.5t79 -35t98 -20.5t119 -1
q-107 102 -129 134q-4 -1 -9.5 -2t-21.5 -1t-30 2.5t-29 12.5t-23 27q-112 -16 -189 0zM483 72q3 1 6.5 4t11 18.5t11.5 37.5q6 3 18 7.5t46.5 23.5t66 41.5t71 61.5t68.5 83q33 -2 56 15q8 -8 22 -22.5t45 -59t48 -86.5q-3 -8 -9.5 -22.5t-32 -54t-57 -73.5t-88 -70
t-122.5 -55q-1 -1 -28.5 19t-67.5 58t-65 74zM911 645q3 -3 7 -8.5t15.5 -25t21 -40.5t19.5 -55t14.5 -70t2.5 -83t-13 -95q-68 109 -101 134q3 7 7 17.5t4 38t-16 46.5q0 -1 3.5 6.5t8.5 20.5t10.5 30t10 39.5t6.5 44.5zM399 676q35 -29 37 -55q6 -1 17 -2t44 -7t65 -15
t75 -27t80 -41q2 2 6.5 5t17.5 9.5t26 9.5t31 0.5t34 -12.5q3 7 8.5 19.5t15.5 55t13 89.5q-4 6 -13.5 16.5t-43 37t-71.5 47.5t-101 38.5t-131 19.5q-2 -2 -24.5 -34.5t-50.5 -80t-35 -73.5zM357 490h8q5 0 17.5 3.5t23 11t20.5 24t13 40.5q16 -2 42 -6t92.5 -24t115.5 -49
l-3 -10q-1 -6 -2 -22.5t2 -31.5t14 -32.5t31 -29.5q-3 -4 -8.5 -11.5t-26 -29.5t-44.5 -43t-64 -47.5t-84 -47.5q-2 3 -4.5 7.5t-12 16.5t-21.5 20t-32 13t-43 2q-5 10 -10.5 26.5t-14.5 78.5t-9 141z" />
    <glyph glyph-name="uniE649" unicode="&#xe649;" 
d="M827 654h-180v-510h180q25 0 42.5 17.5t17.5 42.5v390q0 25 -17.5 42.5t-42.5 17.5zM317 633v-399h-60v540h60v30q0 2 -0.5 6.5t-4 14.5t-9 18t-17.5 14.5t-29 6.5h-60q-25 0 -42.5 -17.5t-17.5 -42.5v-840q0 -25 17.5 -42.5t42.5 -17.5h60q25 0 42.5 17.5t17.5 42.5v270
h270v540h-270v-141z" />
    <glyph glyph-name="uniE64A" unicode="&#xe64a;" 
d="M638 98q14 0 21 13q5 9 2.5 19t-11.5 16l-112 66v132q0 11 -7.5 18.5t-17.5 7.5t-17.5 -7.5t-7.5 -18.5v-132l-112 -66q-9 -6 -11.5 -16t2.5 -19q7 -13 22 -13q6 0 12 3l112 66l112 -66q6 -3 13 -3zM513 596q39 0 66 34.5t32 88.5q5 65 -25 97q-25 28 -73 28t-73 -28
q-30 -32 -25 -97q5 -54 32 -88.5t66 -34.5zM513 409q79 0 134.5 17.5t55.5 53.5q0 12 -14 27t-35.5 27.5t-33.5 19t-22 11.5q-5 2 -11 2q-8 0 -14 -3q-32 -19 -60 -19q-11 0 -26.5 4.5t-24 9t-9.5 5.5q-12 6 -25 1q-10 -5 -22 -11.5t-33.5 -19t-35.5 -27.5t-14 -27
q0 -36 55.5 -53.5t134.5 -17.5zM802 111q39 0 66 34.5t32 89.5q5 64 -25 97q-25 27 -73 27t-74 -27q-29 -33 -24 -97q5 -55 32 -89.5t66 -34.5zM887 80q-5 2 -11 2q-9 0 -14 -3q-38 -19 -60 -19q-11 0 -26.5 5t-24 9t-9.5 5q-13 7 -26 1q-9 -5 -21.5 -11.5t-34 -19t-35 -27
t-13.5 -26.5q0 -37 55.5 -54.5t134 -17.5t134.5 17.5t56 54.5q0 12 -14 26.5t-35.5 27t-33.5 19t-22 11.5zM222.5 111q38.5 0 65.5 34.5t32 89.5q5 64 -24 97q-26 27 -74 27t-73 -27q-30 -33 -25 -97q5 -55 32.5 -89.5t66 -34.5zM307 80q-5 2 -11 2q-8 0 -14 -3
q-32 -19 -60 -19q-22 0 -60 19q-12 7 -25 1l-22 -11q-12 -6 -33.5 -19t-35.5 -27.5t-14 -26.5q0 -37 56 -54.5t134.5 -17.5t134 17.5t55.5 54.5q0 12 -14 26.5t-35.5 27t-33.5 19t-22 11.5z" />
    <glyph glyph-name="uniE64B" unicode="&#xe64b;" 
d="M855 -96h-685q-29 0 -49 19t-20 45v480q0 26 20 45t49 19h685q29 0 49 -18.5t20 -45.5v-480q0 -26 -20 -45t-49 -19zM512 352q-42 0 -72 -28t-30 -68q0 -26 14 -48t37 -35v-91q0 -21 15 -35.5t36.5 -14.5t36.5 14.5t15 35.5v91q23 13 37 35t14 48q0 40 -30 68t-73 28z
M512.5 768q-85.5 0 -145.5 -56t-60 -136h-103q0 119 90.5 203.5t218 84.5t218 -84.5t90.5 -203.5h-103q0 80 -60 136t-145.5 56z" />
    <glyph glyph-name="uniE64C" unicode="&#xe64c;" 
d="M850 -2h-724v723h525l94 94h-666q-19 0 -33 -13.5t-14 -33.5v-817q0 -19 14 -33t33 -14h818q19 0 33 14t14 33v663l-94 -94v-522zM845 585l-132 133l-399 -398l133 -132zM978 784l-66 66q-14 14 -33.5 14t-33.5 -14l-99 -99l133 -133l99 100q14 13 14 32.5t-14 33.5z
M236 111l177 44l-132 132z" />
    <glyph glyph-name="uniE64D" unicode="&#xe64d;" 
d="M681 46l-31 27q-31 28 -31 67t31 66.5t75.5 27.5t75.5 -27l13 -12v306h-338q-44 0 -75 28t-31 67v267h-285q-22 0 -37.5 -13.5t-15.5 -33.5v-818q0 -19 15.5 -33t37.5 -14h534q0 39 31 67zM476 549h338l-391 315v-268q0 -20 15.5 -33.5t37.5 -13.5zM907 46l69 61
q16 14 16 33t-15.5 33t-37.5 14t-38 -14l-69 -61l-69 61q-16 14 -38 14t-37.5 -14t-15.5 -33.5t16 -32.5l69 -61l-69 -61q-16 -14 -16 -33.5t15.5 -33.5t37.5 -14t38 14l69 61l69 -61q16 -14 38 -14t37.5 14t15.5 33q0 20 -16 34z" />
    <glyph glyph-name="uniE64E" unicode="&#xe64e;" 
d="M920.5 698q-28.5 0 -48.5 -18l-477 -436l-249 227q-20 18 -48.5 18t-48.5 -18t-20 -44t20 -44l298 -271q19 -19 48 -19q28 0 49 19l525 479q20 18 20 44t-20 44.5t-48.5 18.5z" />
    <glyph glyph-name="uniE64F" unicode="&#xe64f;" 
d="M167 460h-90q-19 0 -32 -22.5t-13 -53.5t13 -53.5t32 -22.5h90q19 0 32 22.5t13 53.5t-13 53.5t-32 22.5zM347 712h600q19 0 32 22.5t13 54t-13 53.5t-32 22h-600q-19 0 -32 -22t-13 -53.5t13 -54t32 -22.5zM167 56h-90q-19 0 -32 -22.5t-13 -54t13 -53.5t32 -22h90
q19 0 32 22t13 53.5t-13 54t-32 22.5zM167 864h-90q-19 0 -32 -22t-13 -53.5t13 -54t32 -22.5h90q19 0 32 22.5t13 54t-13 53.5t-32 22zM947 460h-600q-19 0 -32 -22.5t-13 -53.5t13 -53.5t32 -22.5h600q19 0 32 22.5t13 53.5t-13 53.5t-32 22.5zM947 56h-600
q-19 0 -32 -22.5t-13 -54t13 -53.5t32 -22h600q19 0 32 22t13 53.5t-13 54t-32 22.5z" />
    <glyph glyph-name="uniE650" unicode="&#xe650;" 
d="M752 820v0q0 13 -8 24v1q-3 4 -5 6h-1q-3 4 -8 6v1q-7 4 -14 5q-2 1 -6 1h-2h-1h-390q-30 0 -41 -28q-4 -8 -4 -17v-135h480v136zM947 639h-870q-19 0 -32 -13t-13 -32v-420q0 -19 13 -32t32 -13h150v225h570v-225h150q19 0 32 13t13 32v420q0 19 -13 32t-32 13zM167 459
q-19 0 -32 13t-13 32t13 32t32 13t32 -13t13 -32t-13 -32t-32 -13zM272 -51q0 -19 13 -32t32 -13h390q19 0 32 13t13 32v360h-480v-360zM362 219h300v-45h-300v45zM362 129h300v-45h-300v45zM362 39h300v-45h-300v45z" />
    <glyph glyph-name="uniE651" unicode="&#xe651;" 
d="M193 538l165 -75q9 -4 19 -4q19 0 32 13t13 32q0 29 -26 41l-165 75q-9 4 -19 4q-19 0 -32 -13t-13 -32q0 -29 26 -41zM193 373l165 -75q9 -4 19 -4q19 0 32 13t13 32q0 29 -26 41l-165 75q-9 4 -19 4q-19 0 -32 -13t-13 -32q0 -29 26 -41zM193 208l165 -75q9 -4 19 -4
q19 0 32 13t13 32q0 29 -26 41l-165 75q-9 4 -19 4q-19 0 -32 -13t-13 -32q0 -29 26 -41zM947 864q-9 0 -17 -3l-1 -1l-417 -172l-417 172l-1 1q-8 3 -17 3q-19 0 -32 -13t-13 -32v-690q0 -30 28 -42l434 -179q9 -4 18 -4t18 4l434 179q28 12 28 42v690q0 19 -13 32t-32 13z
M467 16l-345 143v593l345 -143v-593zM902 159l-345 -143v593l345 143v-593zM647 129q10 0 19 4l165 75q26 12 26 41q0 19 -13 32t-32 13q-10 0 -19 -4l-165 -75q-26 -12 -26 -41q0 -19 13 -32t32 -13zM647 294q10 0 19 4l165 75q26 12 26 41q0 19 -13 32t-32 13
q-10 0 -19 -4l-165 -75q-26 -12 -26 -41q0 -19 13 -32t32 -13zM647 459q10 0 19 4l165 75q26 12 26 41q0 19 -13 32t-32 13q-10 0 -19 -4l-165 -75q-26 -12 -26 -41q0 -19 13 -32t32 -13z" />
    <glyph glyph-name="uniE652" unicode="&#xe652;" 
d="M794 307.5q0 116.5 -83 199t-199.5 82.5t-199 -82.5t-82.5 -199t82.5 -199t199 -82.5t199.5 82.5t83 199zM512 121q-77 0 -131.5 54.5t-54.5 131.5t54.5 132t131.5 55t131.5 -55t54.5 -132t-54.5 -131.5t-131.5 -54.5zM286 643q2 0 5 1l221 50l221 -50q19 -5 27 12.5
t-7 29.5l-227 167q-14 11 -28 0l-227 -167q-15 -12 -7 -29q6 -14 22 -14zM176 114l-66 213q-5 18 -25 17q-8 -1 -14 -7t-7 -14l-32 -280q-2 -18 14 -25l258 -112q5 -2 10 -2q12 0 19 10q12 16 -1 30zM960 323q-1 8 -7 14t-14.5 6.5t-15.5 -4t-10 -13.5l-59 -212l-161 -170
q-14 -14 -3 -30q8 -10 20 -10q5 0 10 2l258 112q16 7 14 25z" />
    <glyph glyph-name="uniE653" unicode="&#xe653;" 
d="M137 459h413q30 -63 90 -102t133 -39q70 0 129 37t90 97h-108q-46 0 -78.5 33t-32.5 79t32.5 79t78.5 33h108q-31 60 -90 97t-129 37q-73 0 -133 -39t-90 -102h-413q-44 0 -74.5 -31t-30.5 -74t30.5 -74t74.5 -31zM966 125h-401q-5 24 -24 40.5t-44 16.5q-12 0 -24 -5
q-20 28 -50.5 44.5t-65.5 16.5h-185q-58 0 -99 -41t-41 -99t41 -99t99 -41h185q36 0 66 16.5t50 44.5q12 -5 24 -5q25 0 44 16t24 40h401q10 0 18 8t8 19v2q0 11 -8 18.5t-18 7.5z" />
    <glyph glyph-name="uniE654" unicode="&#xe654;" 
d="M418 654q-10 0 -16.5 -6.5t-6.5 -15.5v-228l-126 -74q-8 -5 -10 -14t2 -17q7 -11 20 -11q6 0 11 3l137 81q11 6 11 19v241q0 9 -6.5 15.5t-15.5 6.5zM417 -1h514q21 0 36.5 15t15.5 36t-15.5 36.5t-36.5 15.5h-249q65 59 98 139h151q21 0 36.5 15t15.5 36t-15.5 36.5
t-36.5 15.5h-124q4 27 4 49q0 44 -11 90h131q21 0 36.5 15t15.5 36t-15.5 36.5t-36.5 15.5h-171q-51 91 -142.5 146t-200.5 55q-107 0 -198 -52.5t-143.5 -143.5t-52.5 -198t52.5 -198t143.5 -143.5t198 -52.5zM416.5 44q-94.5 0 -175 46.5t-127.5 127t-47 175.5t47 175.5
t127.5 127t175 46.5t175 -46.5t127.5 -127t47 -175.5t-47 -175.5t-127.5 -127t-175 -46.5z" />
    <glyph glyph-name="uniE655" unicode="&#xe655;" 
d="M512 767q75 0 127.5 -49.5t52.5 -119.5q0 -41 -20 -77l147 -106q26 19 63 19q47 0 79.5 -30.5t32.5 -73.5t-32.5 -73.5t-79 -30.5t-79 30.5t-32.5 73.5q0 19 8 36l-145 106q-39 -33 -88 -40v-162q49 -11 81 -48.5t32 -85.5q0 -56 -43 -96t-104 -40q-60 0 -103 40t-43 96
q0 48 32 85.5t81 48.5v162q-49 9 -88 40l-145 -106q8 -17 8 -36q0 -43 -32.5 -73.5t-79 -30.5t-79 30.5t-32.5 73.5t32.5 73.5t78.5 30.5q35 0 64 -19l145 106q-20 38 -20 77q1 70 54 119.5t127 49.5v0z" />
    <glyph glyph-name="uniE656" unicode="&#xe656;" 
d="M752 632q0 97 -70.5 165t-170.5 68t-170.5 -68t-70.5 -165v-31v-23q0 -50 19.5 -108t51 -108t77.5 -83t93 -33q48 0 94 33t77.5 83t50.5 108t19 108v23v31zM916 132q-72 64 -230 135l-1 -1v-19q0 -95 -32.5 -171.5t-83.5 -108.5l-25 131l26 30l-58 53l-57 -53l26 -30
l-25 -132q-52 30 -85 107t-33 174v19q-162 -74 -229 -134q-21 -18 -36.5 -48.5t-23 -60.5t-11.5 -57t-5 -44l-1 -17h960q0 76 -26 148q-19 52 -50 79z" />
    <glyph glyph-name="uniE657" unicode="&#xe657;" 
d="M989 100q3 9 3 18v533q0 7 -2 17l-314 -268zM512 335l124 101l315 269q-10 2 -16 2h-845q-6 0 -16 -2l314 -269l41 -34zM935 60q5 0 15 2l-316 304l-123 -100l-122 99l-315 -303q10 -2 15 -2h846zM35 668q-3 -10 -3 -17v-533q0 -9 4 -18l313 300z" />
    <glyph glyph-name="uniE658" unicode="&#xe658;" 
d="M915 124q12 18 24 42l5 10q9 16 15 36q2 5 5 15q7 23 10 34q0 2 1.5 8t2.5 8q5 27 6 37q0 2 1 7.5t1 8.5q4 26 4 54q1 97 -36.5 186t-102 153t-153 102.5t-186 38.5t-186 -38.5t-153 -102.5t-103 -153t-38.5 -186q0 -28 4 -54q0 -4 3 -16q1 -15 6 -37q1 -6 4 -16
q2 -11 10 -34q0 -2 2 -7t3 -8q2 -6 7 -18t8 -18l5 -10q13 -26 24 -41q0 -1 1 -1q66 -102 172.5 -161t230.5 -59q125 0 231 59t172 159v2zM512 634q74 0 125.5 -52t51.5 -125t-51.5 -124.5t-125 -51.5t-125 51.5t-51.5 124.5q-1 73 51 125t125 52zM220 84q38 86 117 138.5
t174 52.5t175 -53t118 -138q-57 -57 -132.5 -88t-159 -31t-159 31t-133.5 88z" />
    <glyph glyph-name="uniE659" unicode="&#xe659;" 
d="M958 37h-310q-11 0 -17.5 7t-6.5 17v117h238q11 0 17.5 7t6.5 17v24q0 9 -7 16.5t-17 7.5h-238v46h238q11 0 17.5 6.5t6.5 17.5v24q0 9 -7 16t-17 7h-238v48h238q11 0 17.5 6.5t6.5 16.5v24q0 10 -7 17t-17 7h-238v48h238q11 0 17.5 6.5t6.5 16.5v24q0 9 -7 16.5t-17 7.5
h-238v117q0 10 7 17t17 7h311q10 0 16.5 -6.5t6.5 -17.5v-658q0 -12 -7 -19.5t-17 -7.5zM22 725l554 92v-237v-2v-23v-1v-90v-2v-24v-1v-90v-1v-24v-1v-90v-1v-24v-1v-251l-554 76v695zM338 187l14 38h76l14 -38h37l-71 181h-36l-71 -181h37zM138 456q28 -29 68 -29
t67.5 27.5t27.5 67.5t-27.5 67.5t-67.5 27.5q-27 0 -48 -12q-23 -13 -36 -35q-12 -22 -12 -48q0 -37 28 -66zM206 585q25 0 43 -18q17 -19 17 -43.5t-17 -43.5q-18 -18 -43 -18q-21 0 -38 14q-23 17 -23 48q0 25 17 44q21 17 44 17zM415 257h-49l25 63z" />
    <glyph glyph-name="uniE65A" unicode="&#xe65a;" 
d="M512.5 864q-97.5 0 -186.5 -38.5t-153 -102.5t-102.5 -153t-38.5 -186.5t38.5 -186.5t102.5 -153t153 -102t186.5 -38t186.5 38t153 102t102 153t38 186.5t-38 186.5t-102 153t-153 102.5t-186.5 38.5zM712 415v-48h-168v-75h168v-47h-168v-158h-63v158h-167v47h168v75
h-168v48h137l-160 266h69l154 -261l152 261h68l-159 -266h137z" />
    <glyph glyph-name="uniE65B" unicode="&#xe65b;" 
d="M390 384h-57v-141h64q45 0 64 19q25 26 25 52q0 37 -23 53.5t-73 16.5zM512 864q-129 0 -239.5 -65t-175.5 -175.5t-65 -239.5t65 -239.5t175.5 -175.5t239.5 -65t239.5 65t175.5 175.5t65 239.5t-65 239.5t-175.5 175.5t-239.5 65zM499 230q-42 -32 -96 -32h-121v410
h121q58 0 83 -26q32 -24 32 -70q0 -38 -19 -58q-2 -1 -9.5 -9.5t-11.5 -12.5t-12.5 -9t-17.5 -7q43 0 64 -32q26 -26 26 -70q0 -55 -39 -84zM710 563h-38v-320h38v-45h-128v45h39v320h-39v45h128v-45zM441.5 448q19.5 19 19.5 51q0 58 -77 58h-51v-128h51q38 0 57.5 19z" />
  </font>
</defs>
</svg>
